<svg width="138" height="237" viewBox="0 0 138 237" fill="none" xmlns="http://www.w3.org/2000/svg">
<g id="man-ok" clip-path="url(#clip0_6_361)">
<path id="Vector" d="M0.335511 29.4444C0.494935 30.5008 1.2873 31.3393 2.04873 32.0925C3.42644 33.4734 4.70898 35.0486 6.09383 36.4271L8.29723 40.3874L13.3489 37.8862L14.8336 37.1495L12.6017 33.3431C13.8271 30.7756 14.7718 27.9522 14.905 25.1145C14.9574 23.9681 14.8265 22.8122 15.0073 21.68C15.2453 20.2352 15.9591 18.9206 16.3636 17.5112C16.4871 17.1953 16.493 16.8458 16.3803 16.5259C16.2693 16.3405 16.1014 16.1955 15.9013 16.1124C15.7012 16.0292 15.4796 16.0123 15.2691 16.064C14.8488 16.1774 14.4661 16.3997 14.1603 16.7083C14.1269 16.7391 14.0889 16.7722 14.0556 16.8078C12.6001 18.1622 11.6292 19.953 11.2906 21.9074C11.2758 22.1644 11.1856 22.4115 11.0312 22.618C10.8558 22.7644 10.6385 22.8523 10.4102 22.8691C9.03249 23.0657 7.63336 22.5896 6.43172 21.8861C5.93203 21.5948 5.41568 21.2513 4.83747 21.2679C3.99752 21.2916 3.39075 22.0495 2.93389 22.7578C2.05141 24.1511 1.31242 25.6295 0.728122 27.1705C0.46638 27.8929 0.228434 28.6746 0.335511 29.4444Z" fill="#F69889"/>
<path id="Vector_2" d="M10.8671 33.1773L13.3417 37.8885L14.8265 37.1519L12.6017 33.3431C13.8271 30.7756 14.7718 27.9522 14.905 25.1145C14.9574 23.9681 14.8265 22.8122 15.0074 21.68C15.2453 20.2352 15.9591 18.9206 16.3637 17.5112C16.4871 17.1953 16.493 16.8458 16.3803 16.5259C16.2693 16.3405 16.1014 16.1955 15.9013 16.1124C15.7012 16.0292 15.4796 16.0123 15.2691 16.064C14.8488 16.1774 14.4661 16.3997 14.1603 16.7083C14.1269 16.7391 14.0889 16.7722 14.0556 16.8078C14.334 16.8409 14.6266 16.8078 14.8575 16.957C15.4595 17.3312 15.0502 18.2289 14.729 18.8519C13.9628 20.3465 14.096 22.1182 14.0151 23.7976C13.8104 27.1449 12.7247 30.3797 10.8671 33.1773Z" fill="#FBBD8E"/>
<path id="Vector_3" d="M6.86954 28.4425C6.20084 29.8222 5.87057 31.3402 5.90585 32.8718C5.51085 31.4317 5.39665 29.8755 5.86064 28.4543C6.32464 27.0331 7.44061 25.7778 8.88971 25.3893C9.15883 25.2979 9.44374 25.2617 9.72729 25.2827C9.50124 25.7801 8.58752 26.1828 8.18301 26.5949C7.65239 27.1399 7.20937 27.7631 6.86954 28.4425Z" fill="#F47C6F"/>
<path id="Vector_4" d="M0.00714626 29.8565C1.81793 31.4317 4.75419 31.7514 4.75419 31.7514C5.14844 31.3285 5.47724 30.8496 5.72978 30.3303C5.85113 30.0934 5.96773 29.8565 6.07243 29.6197C6.31539 29.0382 6.52278 28.4425 6.69347 27.8361C6.77437 27.5637 6.84813 27.2889 6.91714 27.0142C7.09798 26.2799 7.24788 25.5456 7.36448 24.8564C7.42159 24.5603 7.4668 24.2737 7.50963 23.9989C7.61909 23.2528 7.69523 22.5967 7.74758 22.104C7.80707 21.5379 7.82848 21.1921 7.82848 21.1921C5.81544 20.292 2.34379 20.6426 2.34379 20.6426C1.81421 21.3194 1.39136 22.0726 1.0898 22.8762C-0.161799 26.062 0.00714626 29.8565 0.00714626 29.8565Z" fill="#FBBD8E"/>
<path id="Vector_5" d="M4.01178 23.6365C4.01178 23.6365 4.28304 23.7834 4.69707 23.9729C5.21468 24.2133 5.74719 24.4205 6.29132 24.5934C6.66966 24.7095 7.03609 24.7948 7.36446 24.8635C7.42157 24.5674 7.46678 24.2808 7.50961 24.006C7.22309 23.8348 6.91717 23.6981 6.59827 23.5986C6.00547 23.4219 5.3814 23.3742 4.76845 23.4589C4.51058 23.491 4.25691 23.5506 4.01178 23.6365Z" fill="#F47C6F"/>
<path id="Vector_6" d="M3.55969 26.5547C3.55969 26.5547 3.79764 26.7181 4.19025 26.9218C4.66855 27.1811 5.16757 27.4005 5.68219 27.5779C6.01249 27.6849 6.34851 27.7734 6.6887 27.8432C6.7696 27.5708 6.84337 27.2961 6.91237 27.0213C6.63183 26.8407 6.32966 26.6959 6.01293 26.5902C5.45712 26.4134 4.87076 26.3522 4.29019 26.4102C4.04248 26.4341 3.79778 26.4825 3.55969 26.5547Z" fill="#F47C6F"/>
<path id="Vector_7" d="M2.36996 29.0038C2.36996 29.0038 2.62695 29.1767 3.03384 29.397C3.54344 29.6726 4.07703 29.9017 4.62808 30.0816C4.99084 30.1969 5.36139 30.2863 5.73692 30.3492C5.85827 30.1124 5.97487 29.8755 6.07956 29.6386C5.72726 29.4121 5.34642 29.2329 4.94693 29.1057C4.36338 28.9242 3.75059 28.8542 3.14091 28.8996C2.88125 28.9106 2.62316 28.9454 2.36996 29.0038Z" fill="#F47C6F"/>
<path id="Vector_8" d="M1.08505 22.8857C1.67774 22.4521 2.34563 22.1309 3.05526 21.9382C3.71551 21.8033 4.39139 21.7602 5.06353 21.8103C5.8505 21.8085 6.6362 21.8735 7.41208 22.0045C7.52551 22.0325 7.63619 22.0706 7.74282 22.1182C7.80231 21.5521 7.82373 21.2063 7.82373 21.2063C5.81069 20.3062 2.33903 20.6568 2.33903 20.6568C1.80987 21.3321 1.38704 22.0837 1.08505 22.8857Z" fill="#FED9BA"/>
<path id="Vector_9" d="M62.5968 65.6844C62.1923 71.0777 45.5717 75.1589 31.4757 81.1894C29.9586 81.8418 28.2562 81.929 26.6799 81.4349C25.1036 80.9409 23.7585 79.8986 22.8905 78.4986C17.9555 70.5069 7.36684 45.8613 5.71548 36.5147L13.6249 33.8761L15.2286 33.3408C15.2286 33.3408 28.1301 56.7902 31.6303 64.4029C31.6303 64.4029 47.5871 54.7745 52.3984 52.9056C53.4192 53.4048 54.2815 54.1754 54.8897 55.1321C55.6916 56.3425 62.7872 63.1097 62.5968 65.6844Z" fill="#65508A"/>
<path id="Vector_10" d="M34.6713 65.3693C34.6713 65.3693 35.033 70.019 34.5428 70.3269C34.0527 70.6348 32.2157 67.0108 32.2157 67.0108C32.2157 67.0108 30.3407 71.1749 28.7084 72.1341C27.0761 73.0934 30.4739 66.0562 30.4739 66.0562C28.1468 63.9055 16.5635 39.9871 13.6249 33.8714L15.2286 33.336C15.2286 33.336 28.1302 56.7854 31.6304 64.3982C31.6304 64.3982 49.0196 52.5859 54.6423 52.1216C54.6423 52.1216 54.421 52.2329 55.5131 53.8839L34.6713 65.3693Z" fill="#836FB2"/>
<path id="Vector_11" d="M75.0629 42.1923C74.8249 42.4292 64.2339 50.2315 64.2339 50.2315C64.2339 50.2315 64.4718 45.4279 64.5932 42.9242C64.6265 42.1497 64.6503 41.5954 64.6503 41.4723C64.6503 40.4727 63.7937 36.1381 63.7937 36.1381L74.468 31.273C74.468 31.273 74.637 33.4663 74.8011 35.8871C75.0082 38.8099 75.1961 42.0597 75.0629 42.1923Z" fill="#FBBD8E"/>
<path id="Vector_12" d="M74.8107 35.8871C71.8435 38.033 65.2928 42.7276 64.6503 42.9124H64.5932C64.6265 42.1379 64.6503 41.5836 64.6503 41.4604C64.6503 40.4609 63.7937 36.1263 63.7937 36.1263L74.468 31.273C74.468 31.273 74.6465 33.4711 74.8107 35.8871Z" fill="#F69889"/>
<path id="Vector_13" d="M75.9409 31.6448C75.9409 31.6448 75.6744 32.4123 74.4799 33.464C74.2066 33.7046 73.9206 33.9307 73.6233 34.1414C72.3693 35.0367 60.6338 40.044 58.8254 39.8048C57.017 39.5655 55.3133 33.3787 55.2205 32.7273C54.6351 28.7338 53.0361 16.4169 53.0361 16.4169C57.4976 2.97499 73.4092 9.93639 75.2176 11.2557C77.026 12.575 75.9409 31.6448 75.9409 31.6448Z" fill="#FBBD8E"/>
<path id="Vector_14" d="M74.468 33.4711C74.1947 33.7117 73.9087 33.9378 73.6114 34.1485C72.3574 35.0438 60.6219 40.0511 58.8135 39.8119C57.0051 39.5726 55.3014 33.3858 55.2086 32.7344C56.334 35.4512 57.6047 39.2079 58.8848 39.0894C60.8241 38.9023 73.0522 34.2101 74.468 33.4711Z" fill="#FED9BA"/>
<path id="Vector_15" d="M54.321 18.1034C54.321 18.1034 56.484 15.2232 57.688 16.3648C58.892 17.5065 58.3519 17.6249 58.3519 17.6249L54.321 18.1034Z" fill="#181818"/>
<path id="Vector_16" d="M70.1374 18.0892C70.1374 18.0892 65.2119 14.5363 63.9936 16.4856C63.2797 17.6249 64.0721 18.1034 64.0721 18.1034L70.1374 18.0892Z" fill="#181818"/>
<path id="Vector_17" d="M61.3095 28.5514C61.6546 28.4259 62.002 28.2364 62.366 28.2743C61.9937 29.1142 61.305 29.7751 60.4482 30.1147C60.3841 30.1446 60.3143 30.1608 60.2435 30.1621C60.1582 30.1529 60.0764 30.1228 60.0056 30.0744C59.534 29.7999 59.1215 29.4353 58.7921 29.0015C58.7222 28.916 58.6697 28.8178 58.6374 28.7125C58.5541 28.3596 58.7992 28.4377 59.011 28.5183C59.2565 28.6147 59.5131 28.6807 59.7748 28.7148C60.2921 28.7832 60.8184 28.7271 61.3095 28.5514Z" fill="#F69889"/>
<path id="Vector_18" d="M60.372 29.9181C60.1555 29.7239 59.9128 29.5605 59.6915 29.3733C59.4148 29.1434 59.1621 28.8862 58.9372 28.6059C60.0913 27.8148 60.0794 26.6139 60.0246 25.2519C59.9844 24.3057 59.6054 23.4051 58.9562 22.7128C58.8429 22.594 58.723 22.4817 58.5969 22.3764C58.4768 22.2809 58.3418 22.2057 58.1972 22.1538C58.2686 22.2367 58.3162 22.329 58.3804 22.4119C58.5553 22.6219 58.719 22.8409 58.8706 23.0681C59.0132 23.3046 59.1373 23.5516 59.2418 23.8071C59.4486 24.3211 59.5653 24.8667 59.5868 25.4201C59.6094 25.9634 59.5211 26.5057 59.3274 27.0142C59.1019 27.6144 58.6987 28.1322 58.171 28.4993C58.171 28.4993 58.961 29.4136 59.0371 29.4894C59.2375 29.6821 59.4567 29.8543 59.6915 30.0034C59.9154 30.1789 60.1857 30.2859 60.4696 30.3113C60.5592 30.3102 60.6466 30.2839 60.7218 30.2355C60.673 30.2039 60.6275 30.1674 60.5862 30.1266C60.5675 30.1096 60.5501 30.0914 60.5338 30.0721C60.4815 30.0129 60.4291 29.9631 60.372 29.9181Z" fill="#F47C6F"/>
<path id="Vector_19" d="M64.5718 33.9235C64.0357 34.1876 63.4486 34.3334 62.8507 34.351C62.2528 34.3685 61.6581 34.2575 61.1073 34.0253C61.2716 34.294 61.5048 34.5143 61.7828 34.6637C62.0609 34.8131 62.3738 34.8863 62.6896 34.8756C63.4136 34.8004 64.084 34.4613 64.5718 33.9235Z" fill="#F47C6F"/>
<path id="Vector_20" d="M68.5907 30.9082C67.2186 31.8836 65.629 32.5126 63.9586 32.7412C62.2882 32.9698 60.5871 32.7911 59.0014 32.2204C60.7289 32.5757 62.4945 32.4573 64.2363 32.2086C65.5807 32.0191 67.4509 31.6472 68.5907 30.9082Z" fill="#F47C6F"/>
<path id="Vector_21" d="M68.8001 22.9638C68.8001 24.2074 68.1696 25.214 67.3939 25.214C66.6181 25.214 65.9876 24.2074 65.9876 22.9638C65.9876 21.7203 66.6158 20.716 67.3939 20.716C68.1719 20.716 68.8001 21.7227 68.8001 22.9638Z" fill="#171919"/>
<path id="Vector_22" d="M70.1421 21.7108C69.8198 22.2121 69.3492 22.6016 68.7952 22.8256C68.2412 23.0495 67.6311 23.097 67.0488 22.9615C67.3712 22.4602 67.8418 22.0707 68.3958 21.8467C68.9498 21.6227 69.5599 21.5753 70.1421 21.7108Z" fill="#FFF0E8"/>
<path id="Vector_23" d="M55.5013 23.8071C55.5013 24.7545 55.9771 25.503 56.5601 25.503C57.1431 25.503 57.6214 24.745 57.6214 23.8071C57.6214 22.8691 57.1455 22.1135 56.5601 22.1135C55.9748 22.1135 55.5013 22.8715 55.5013 23.8071Z" fill="#171919"/>
<path id="Vector_24" d="M54.5923 22.9851C54.8463 23.3171 55.1853 23.575 55.5738 23.7316C55.9623 23.8883 56.386 23.9381 56.8004 23.8758C56.5391 23.5508 56.2017 23.2946 55.8177 23.1296C55.4275 22.9814 55.0065 22.9318 54.5923 22.9851Z" fill="#FFF0E8"/>
<path id="Vector_25" d="M56.9575 29.0322C56.7719 29.5249 55.7059 29.5818 54.578 29.1602C53.4501 28.7385 52.6744 27.9972 52.8624 27.5021C53.0504 27.0071 54.1164 26.9526 55.2419 27.3742C56.3674 27.7958 57.1431 28.5419 56.9575 29.0322Z" fill="#F69889"/>
<path id="Vector_26" d="M71.1986 26.7371C71.3914 27.4784 70.1636 28.4377 68.4575 28.8688C66.7514 29.2999 65.2095 29.063 65.0168 28.3217C64.824 27.5803 66.0495 26.621 67.7579 26.1899C69.4664 25.7588 71.0059 25.9933 71.1986 26.7371Z" fill="#F69889"/>
<path id="Vector_27" d="M73.2783 22.2698C73.8708 23.5963 74.6512 24.989 74.3419 26.4078C74.142 27.3292 73.5044 28.1037 73.2854 29.0133C72.988 30.2497 73.502 31.5288 74.0873 32.6586C74.6727 33.7885 75.4627 34.9775 76.7047 35.3328C76.5234 34.4974 76.6299 33.6255 77.0069 32.8576C77.0293 33.3505 77.2001 33.8253 77.4971 34.2202C77.7942 34.6152 78.2037 34.9121 78.6726 35.0722C78.5829 34.4046 78.6766 33.7252 78.9438 33.1063C78.9887 33.3367 79.0804 33.5556 79.2133 33.7495C79.3462 33.9433 79.5176 34.1081 79.7168 34.2336C79.916 34.3592 80.1389 34.4429 80.3718 34.4796C80.6047 34.5162 80.8426 34.5051 81.0711 34.4469C80.6878 34.1693 80.4091 33.7718 80.2797 33.3179C80.1503 32.8639 80.1776 32.3799 80.3572 31.9433C80.3729 31.9046 80.3921 31.8673 80.4143 31.832C81.2138 30.2616 83.817 29.9015 84.0859 28.1464C84.2715 26.9408 83.1579 25.8417 83.2602 24.6242C83.3554 23.5134 84.3976 22.7578 84.9663 21.7961C85.2141 21.3684 85.3629 20.8909 85.4017 20.3986C85.4359 20.0605 85.4223 19.7192 85.3613 19.3848C85.357 19.3455 85.349 19.3066 85.3375 19.2688C85.1941 18.5617 84.8342 17.9163 84.3072 17.4212C84.1311 17.2817 83.9715 17.1227 83.8313 16.9475C83.7987 16.9001 83.7716 16.8493 83.7504 16.7959C83.6171 16.4714 83.7218 16.1043 83.7813 15.7561C83.8072 15.6104 83.8247 15.4633 83.8336 15.3155C83.8982 14.2096 83.5259 13.1224 82.7962 12.2861C82.7248 12.2079 82.6534 12.1297 82.5797 12.0492C81.8736 11.3565 80.9492 10.9274 79.9622 10.8341C79.8096 10.8202 79.6563 10.8147 79.503 10.8175L78.6773 9.69952C78.0825 10.1069 77.283 9.91981 76.5572 9.92218C75.3151 9.92218 74.1611 10.5735 73.3402 11.5163C73.0086 11.8899 72.7322 12.3086 72.5192 12.7598C72.3082 13.2063 72.1486 13.6751 72.0433 14.1573C72.0267 14.2354 72.0124 14.3089 71.9981 14.3941C71.9648 14.5552 71.941 14.7186 71.9196 14.8821C71.8125 15.8742 71.8365 16.8759 71.991 17.8618C72.2196 19.382 72.6526 20.8646 73.2783 22.2698Z" fill="black"/>
<path id="Vector_28" d="M54.6161 26.512L53.3169 16.668C53.8641 16.1943 53.976 15.7608 54.1973 15.0929C54.2738 14.7758 54.3838 14.4678 54.5256 14.1739C55.3347 12.7811 57.9568 13.1909 58.6064 11.72C58.7564 11.3812 58.8825 11.0781 59.011 10.7725C59.1341 10.8858 59.2671 10.988 59.4083 11.0781C60.7908 11.9639 62.6135 11.9355 63.9936 12.8237C64.7907 13.3377 65.3784 14.117 66.1613 14.65C66.9982 15.2175 68.0089 15.4741 69.0166 15.3747C69.9684 15.2776 70.8941 14.856 71.8577 14.8726H71.9172C71.8101 15.8647 71.8341 16.8665 71.9886 17.8523C72.2172 19.3758 72.651 20.8617 73.2783 22.2698C73.8708 23.5963 74.6512 24.989 74.3419 26.4078C74.142 27.3292 73.5043 28.1037 73.2854 29.0133C72.988 30.2497 73.502 31.5288 74.0873 32.6586C74.6727 33.7885 75.4626 34.9775 76.7047 35.3328C76.5234 34.4974 76.6299 33.6255 77.0069 32.8576C77.0293 33.3505 77.2001 33.8253 77.4971 34.2202C77.7942 34.6152 78.2037 34.9121 78.6725 35.0722C78.5829 34.4046 78.6766 33.7252 78.9438 33.1063C78.9887 33.3367 79.0804 33.5556 79.2133 33.7495C79.3462 33.9433 79.5175 34.1081 79.7168 34.2336C79.916 34.3592 80.1389 34.4429 80.3718 34.4796C80.6047 34.5162 80.8426 34.5051 81.0711 34.4469C80.6878 34.1693 80.4091 33.7718 80.2797 33.3179C80.1503 32.8639 80.1776 32.3799 80.3572 31.9433C80.3729 31.9046 80.392 31.8673 80.4143 31.832C79.9622 31.2469 79.9075 30.5529 80.8188 29.8186L80.105 29.8897C80.0669 28.812 81.0877 28.0445 81.723 27.1705C82.164 26.5424 82.4294 25.809 82.4921 25.0454C82.5548 24.2817 82.4126 23.5151 82.08 22.8241C82.0133 23.2575 81.3304 23.3215 81.0473 22.9851C80.7641 22.6488 80.8093 22.1514 80.9545 21.7369C81.0996 21.3224 81.3161 20.9292 81.3447 20.491C80.7617 20.7942 80.0217 20.2944 79.8266 19.6714C79.6315 19.0485 79.8266 18.3758 80.0003 17.7481C79.6981 18.3095 78.8106 18.319 78.3347 17.8855C77.8588 17.452 77.7445 16.7533 77.7945 16.1161C77.8445 15.479 78.0325 14.8584 78.0634 14.2212C78.0913 13.4452 77.8932 12.6777 77.493 12.0112C77.0928 11.3447 76.5075 10.8076 75.8077 10.4646C75.999 10.774 76.0968 11.1317 76.0897 11.4949C76.0825 11.8582 75.9706 12.2117 75.7672 12.5134C75.1509 11.8408 74.2848 11.6252 73.3544 11.5163C72.0291 11.3528 70.5728 11.4002 69.5258 10.6233C68.655 9.97428 68.2505 8.87524 67.4843 8.1078C66.9322 7.57937 66.2289 7.23451 65.4715 7.12081C64.7142 7.00711 63.9401 7.13017 63.2559 7.47301C62.6016 7.82357 62.0662 8.37072 61.3524 8.61943C60.6385 8.86813 59.6867 8.64785 59.5059 7.93016C59.613 9.33001 57.8212 10.467 56.5934 9.77532C56.3269 11.3031 54.4257 12.2979 53.0123 11.6513C53.2241 13.2904 53.2717 15.3061 51.8702 16.1919C51.8383 17.2507 51.4116 18.2597 50.6733 19.0224C52.3175 22.3054 54.6161 26.512 54.6161 26.512Z" fill="black"/>
<path id="Vector_29" d="M49.1385 15.6021C49.3217 16.218 49.9309 17.5255 50.6828 19.0295C52.3175 22.3054 54.6161 26.512 54.6161 26.512L53.3169 16.668C53.8642 16.1943 53.976 15.7608 54.1973 15.0929C54.2738 14.7758 54.3839 14.4678 54.5257 14.1739C55.3347 12.7811 57.9569 13.1909 58.6065 11.72C58.7564 11.3812 58.8825 11.0781 59.011 10.7725C59.1342 10.8858 59.2671 10.988 59.4083 11.0781C60.7908 11.9639 62.6135 11.9355 63.9936 12.8237C64.7907 13.3377 65.3784 14.117 66.1613 14.65C66.9982 15.2175 68.0089 15.4741 69.0167 15.3748C69.9685 15.2776 70.8941 14.856 71.8578 14.8726H71.9172C72.077 14.8793 72.236 14.8975 72.3931 14.9271C72.659 15.6959 72.8464 16.4895 72.9523 17.2957C73.015 17.8842 73.1617 18.4609 73.3878 19.0082C73.7566 19.7899 74.4514 20.3868 74.7774 21.1826C75.3484 22.5801 74.4728 25.9199 75.5317 26.9905C75.2604 25.1169 76.976 23.286 77.0117 23.3239C78.3537 23.5195 79.7231 23.402 81.0116 22.9804C82.6492 22.4118 84.0542 21.3243 85.0115 19.8846C85.1227 19.7224 85.2243 19.554 85.3161 19.3801C85.3565 19.3067 85.3756 19.2664 85.3756 19.2664H85.2923C84.6926 19.2261 84.2691 18.7927 84.0097 18.2621C83.8257 17.845 83.7442 17.3904 83.7718 16.9357C83.7718 16.7675 83.7861 16.5993 83.7932 16.4335C83.8262 16.0573 83.8198 15.6786 83.7742 15.3037C83.7435 15.0622 83.6702 14.8281 83.5576 14.6121C83.2007 13.9417 82.4535 13.5533 81.9895 12.954C81.8716 12.795 81.7718 12.6234 81.6921 12.4424C82.0038 12.3145 82.2537 12.1511 82.5559 12.0539C82.7467 11.9902 82.947 11.959 83.1484 11.9616C84.1218 12.0036 85.049 12.387 85.7658 13.044C85.512 12.4279 85.1168 11.8795 84.6117 11.4428C84.3545 11.228 84.0551 11.0689 83.7327 10.9755C83.4103 10.8821 83.072 10.8566 82.7391 10.9004C83.1262 10.4373 83.3574 9.86491 83.4001 9.26396C83.4428 8.66301 83.2948 8.06389 82.977 7.55118C82.9158 8.07132 82.7515 8.57421 82.4938 9.03078C82.2361 9.48734 81.89 9.88853 81.4756 10.2111C81.6017 8.60759 82.03 6.90928 80.9997 5.74155C80.017 4.62593 78.2181 4.64724 76.9546 3.83244C75.8719 3.13843 75.2176 1.84516 73.9898 1.43539C72.7144 1.00903 71.3152 1.69593 69.978 1.51829C68.6407 1.34064 67.5985 0.352924 66.2898 0.0781634C64.8621 -0.227389 63.3868 0.409771 62.3375 1.42354C61.3599 0.652194 60.1359 0.25701 58.8896 0.310289C57.6999 0.364767 56.4054 0.982979 56.0913 2.09623C55.9581 2.56996 56.0176 3.09579 55.8367 3.56004C55.5227 4.36301 54.6161 4.75857 53.8285 5.1565C53.0409 5.55443 52.2009 6.19159 52.2437 7.0514C52.2675 7.55118 52.6007 7.99885 52.5864 8.50574C52.5602 9.43661 51.4442 9.91033 50.8208 10.6233C50.1974 11.3362 50.0951 12.2647 50.2497 13.1435C49.6763 13.6338 49.1599 14.2615 49.0838 14.9602C49.0561 15.1757 49.0748 15.3944 49.1385 15.6021ZM62.6468 10.3912C62.8615 10.375 63.0774 10.3861 63.2893 10.4243C64.2791 10.6162 64.9549 11.5305 65.8829 11.9402C67.2225 12.5324 68.8453 11.9758 70.2159 12.4969C71.0037 12.8284 71.6513 13.422 72.0481 14.1762C72.0981 14.2662 72.1457 14.3539 72.1909 14.4439C72.1266 14.4297 72.0648 14.4155 72.0029 14.406C71.5333 14.3098 71.0514 14.289 70.5752 14.3444C70.0877 14.4435 69.5925 14.5005 69.0952 14.5149C68.16 14.4747 67.3415 13.892 66.6562 13.2548C65.9709 12.6177 65.3427 11.9 64.5147 11.4665C63.9745 11.1823 63.3535 11.0236 62.8871 10.628C62.8006 10.5515 62.7203 10.4683 62.6468 10.3793V10.3912Z" fill="black"/>
<path id="Vector_30" d="M74.2134 32.1186C76.631 31.9291 78.3918 30.5032 79.3317 29.307C79.5221 29.0691 79.6932 28.8164 79.8433 28.5514C80.5333 27.3055 80.7308 22.9828 78.9533 21.9785C77.7089 21.2679 76.8118 22.2959 76.3716 22.9709C76.2646 23.1342 76.1699 23.3052 76.0885 23.4826L74.2134 32.1186Z" fill="#FED9BA"/>
<path id="Vector_31" d="M74.2134 32.1186C76.631 31.9291 78.3918 30.5032 79.3317 29.307C79.4096 29.195 79.4811 29.0788 79.5458 28.9588C80.2359 27.7129 80.4357 23.3902 78.6583 22.3859C77.6494 21.8174 76.8618 22.3859 76.3716 22.9709C76.2646 23.1342 76.1699 23.3052 76.0885 23.4826L74.2134 32.1186Z" fill="#FBBD8E"/>
<path id="Vector_32" d="M79.5149 25.4177C79.5893 25.7672 79.5612 26.1306 79.434 26.4647C78.9581 27.9166 77.4923 29.0228 76.1027 30.0508C76.5113 29.3673 76.6835 28.5694 76.5929 27.7792C76.5487 27.5118 76.5185 27.2422 76.5025 26.9715C76.4858 25.8772 78.989 23.3689 79.5149 25.4177Z" fill="#F69889"/>
<path id="Vector_33" d="M75.3984 30.4558L75.4793 30.4108C75.5293 30.38 75.6102 30.3397 75.703 30.2781C75.9612 30.1065 76.1928 29.8982 76.3907 29.6599C76.6666 29.3252 76.8605 28.931 76.957 28.5088C77.0661 27.9948 77.0043 27.4594 76.7809 26.9834C76.7519 26.9176 76.7177 26.8542 76.6786 26.7939L76.65 26.7489C76.65 26.737 76.65 26.7489 76.65 26.7489L76.6738 26.7086L76.7214 26.6257C76.7523 26.5712 76.7833 26.5168 76.8166 26.4647C76.9459 26.2574 77.0865 26.0574 77.2378 25.8654C77.3829 25.6806 77.5352 25.5101 77.6851 25.3538C77.8214 25.2073 77.9686 25.0711 78.1253 24.9464C78.2555 24.8426 78.4104 24.7741 78.575 24.7474C78.707 24.7337 78.8401 24.7558 78.9605 24.8114C79.0321 24.8439 79.092 24.8977 79.1318 24.9653C79.1423 24.9889 79.1503 25.0135 79.1556 25.0387C79.1614 25.013 79.1614 24.9863 79.1556 24.9606C79.1336 24.8799 79.0829 24.81 79.0128 24.764C78.8833 24.6752 78.7299 24.6273 78.5726 24.6266C78.3621 24.6309 78.1562 24.6897 77.9754 24.7971C77.7833 24.9094 77.6018 25.0387 77.4329 25.1832C77.2434 25.3378 77.0646 25.5047 76.8975 25.683C76.717 25.8737 76.5515 26.078 76.4026 26.2941C76.3645 26.3486 76.3264 26.4054 76.2907 26.4647L76.236 26.5499L76.1646 26.6731L76.117 26.7584C76.131 26.7885 76.1469 26.8178 76.1646 26.846L76.236 26.9692C76.2692 27.0211 76.2979 27.0758 76.3216 27.1326C76.5237 27.5516 76.606 28.0179 76.5596 28.4804C76.5123 28.8684 76.3869 29.2431 76.1908 29.5818C76.0455 29.8263 75.8687 30.0509 75.6649 30.2497C75.5912 30.3231 75.5221 30.3753 75.4817 30.4132L75.3984 30.4558Z" fill="#F47C6F"/>
<path id="Vector_34" d="M54.6161 26.512L53.3169 16.668C53.8642 16.1943 53.976 15.7608 54.1973 15.0929C54.2738 14.7759 54.3838 14.4678 54.5256 14.1739C55.3347 12.7811 57.9568 13.1909 58.6064 11.72C58.7564 11.3813 58.8825 11.0781 59.011 10.7725C59.1341 10.8858 59.2671 10.988 59.4083 11.0781C60.7908 11.9639 62.6135 11.9355 63.9936 12.8237C64.7907 13.3377 65.3784 14.117 66.1613 14.65C66.9982 15.2175 68.0089 15.4741 69.0167 15.3748C69.9684 15.2776 70.8941 14.856 71.8577 14.8726H71.9172C72.077 14.8793 72.236 14.8975 72.3931 14.9271C72.659 15.6959 72.8464 16.4895 72.9523 17.2957C73.015 17.8842 73.1616 18.4609 73.3877 19.0082C73.7566 19.7899 74.4514 20.3868 74.7774 21.1826C75.3484 22.5801 74.4728 25.9199 75.5316 26.9905C75.2604 25.1169 76.976 23.286 77.0117 23.3239C78.3537 23.5196 79.723 23.402 81.0116 22.9804C80.7332 22.6464 80.7736 22.1467 80.9188 21.7322C81.0639 21.3176 81.2805 20.9244 81.309 20.4863C80.726 20.7894 79.986 20.2897 79.7909 19.6667C79.5958 19.0438 79.7909 18.3711 79.9646 17.7434C79.6624 18.3047 78.7749 18.3142 78.299 17.8808C77.8231 17.4473 77.7089 16.7486 77.7588 16.1114C77.8088 15.4742 77.9968 14.8537 78.0277 14.2165C78.0556 13.4405 77.8575 12.673 77.4573 12.0065C77.0571 11.34 76.4718 10.8029 75.772 10.4599C75.9633 10.7693 76.0612 11.1269 76.054 11.4902C76.0468 11.8535 75.9349 12.207 75.7315 12.5087C75.1152 11.836 74.2491 11.6205 73.3187 11.5115C71.9934 11.3481 70.5371 11.3955 69.4902 10.6186C68.6193 9.96955 68.2148 8.87051 67.4486 8.10307C66.8965 7.57464 66.1932 7.22978 65.4359 7.11608C64.6785 7.00238 63.9044 7.12544 63.2202 7.46828C62.5659 7.81884 62.0305 8.36599 61.3167 8.6147C60.6028 8.8634 59.651 8.64312 59.4702 7.92543C59.5773 9.32529 57.7855 10.4622 56.5577 9.77059C56.2912 11.2984 54.39 12.2932 52.9766 11.6465C53.1884 13.2856 53.236 15.3013 51.8345 16.1872C51.8134 17.2428 51.3997 18.2531 50.6733 19.0224C52.3175 22.3054 54.6161 26.512 54.6161 26.512ZM62.6468 10.3793C62.8615 10.3632 63.0774 10.3743 63.2893 10.4125C64.2791 10.6043 64.9549 11.5186 65.8829 11.9284C67.2225 12.5206 68.8453 11.9639 70.2159 12.485C71.0037 12.8166 71.6513 13.4102 72.0481 14.1644C72.0981 14.2544 72.1457 14.342 72.1909 14.432C72.1266 14.4178 72.0648 14.4036 72.0029 14.3941C71.5333 14.298 71.0514 14.2772 70.5752 14.3326C70.0877 14.4316 69.5925 14.4887 69.0952 14.5031C68.16 14.4628 67.3415 13.8802 66.6562 13.243C65.9709 12.6058 65.3427 11.8881 64.5147 11.4547C63.9745 11.1704 63.3535 11.0117 62.8871 10.6162C62.8011 10.5434 62.7208 10.4642 62.6468 10.3793Z" fill="black"/>
<path id="Vector_35" d="M49.0838 14.9602C49.3242 15.0066 49.5731 14.9794 49.7976 14.8821C50.2497 14.6642 50.4044 14.1146 50.5971 13.6504C50.7899 13.1861 51.2158 12.7029 51.7036 12.8261C51.6013 12.3524 51.5013 11.8787 51.6608 11.4049C51.8202 10.9312 52.3484 10.602 52.7815 10.8009C52.7265 10.5966 52.7171 10.3827 52.7541 10.1744C52.7911 9.96602 52.8735 9.76828 52.9955 9.59507C53.1176 9.42186 53.2763 9.2774 53.4605 9.17186C53.6447 9.06631 53.8499 9.00226 54.0617 8.9842C54.2616 9.0115 54.4653 8.98534 54.6518 8.9084C55.1515 8.59574 54.5471 7.9041 54.3044 7.36879C54.1948 7.12322 54.1761 6.84695 54.2516 6.58897C54.3272 6.331 54.4921 6.108 54.7171 5.95953C54.9421 5.81107 55.2127 5.74673 55.4808 5.77794C55.7489 5.80914 55.9972 5.93387 56.1818 6.13C56.3293 5.28914 57.4738 4.81778 58.1734 5.30809C57.5357 4.61882 58.0616 3.34213 58.9753 3.11474C59.889 2.88735 60.8574 3.53873 61.2191 4.40564C61.5975 3.31371 63.3868 3.12895 63.9841 4.11667C63.8246 2.8234 65.2476 1.6083 66.5063 1.96596C67.1559 2.15071 67.6794 2.65286 68.3266 2.83998C69.6567 3.22844 71.182 2.22888 72.4193 2.83998C73.502 3.37292 73.8018 4.87463 74.8702 5.43126C76.0599 6.05421 77.8112 5.28203 78.7225 6.26975C78.9596 6.56559 79.1315 6.90777 79.227 7.27405C79.4054 7.79751 79.5863 8.32098 79.7647 8.84682C79.9837 9.48161 80.1764 10.2467 79.9646 10.8412C79.901 11.0203 79.7968 11.1824 79.6601 11.3149C80.22 11.4509 80.7389 11.7191 81.1728 12.0968C81.6067 12.4745 81.9429 12.9506 82.1529 13.4849C82.3629 14.0192 82.4407 14.596 82.3795 15.1666C82.3184 15.7371 82.1201 16.2846 81.8016 16.7628C82.2132 16.6088 82.6225 17.0186 82.77 17.4307C82.9176 17.8429 82.9485 18.3095 83.2459 18.6363C83.4839 18.8969 83.8289 19.0082 84.143 19.1669C84.4838 19.341 84.7851 19.5828 85.0281 19.8775C85.1611 20.0345 85.2768 20.2052 85.3732 20.3868C85.4073 20.0486 85.3937 19.7074 85.3327 19.373C85.3732 19.2996 85.3922 19.2593 85.3922 19.2593H85.3089C85.1656 18.5522 84.8056 17.9068 84.2786 17.4118C84.1026 17.2722 83.9429 17.1133 83.8027 16.938C83.8027 16.7699 83.817 16.6017 83.8241 16.4359C83.8571 16.0596 83.8508 15.681 83.8051 15.3061C83.875 14.2072 83.5132 13.1244 82.7962 12.2861C82.7248 12.2079 82.6534 12.1297 82.5797 12.0492C82.7705 11.9854 82.9708 11.9542 83.1722 11.9568C84.1456 11.9989 85.0728 12.3823 85.7896 13.0393C85.5283 12.4225 85.1248 11.8756 84.6117 11.4428C84.3545 11.228 84.0551 11.0689 83.7327 10.9755C83.4103 10.8821 83.072 10.8566 82.7391 10.9004C83.1262 10.4373 83.3574 9.86491 83.4001 9.26396C83.4428 8.66301 83.2948 8.06389 82.977 7.55118C82.9158 8.07132 82.7515 8.57421 82.4938 9.03077C82.2361 9.48734 81.89 9.88853 81.4756 10.2111C81.6017 8.60758 82.03 6.90928 80.9997 5.74155C80.017 4.62592 78.2181 4.64724 76.9546 3.83243C75.8719 3.13843 75.2176 1.84516 73.9898 1.43539C72.7144 1.00903 71.3152 1.69593 69.978 1.51829C68.6407 1.34064 67.5985 0.352924 66.2898 0.0781634C64.8621 -0.227389 63.3868 0.409771 62.3375 1.42354C61.3599 0.652194 60.1359 0.25701 58.8896 0.310289C57.6999 0.364767 56.4054 0.982978 56.0914 2.09623C55.9581 2.56996 56.0176 3.09579 55.8368 3.56004C55.5227 4.36301 54.6161 4.75857 53.8285 5.1565C53.0409 5.55443 52.2009 6.19159 52.2437 7.0514C52.2675 7.55118 52.6007 7.99885 52.5864 8.50573C52.5602 9.4366 51.4442 9.91033 50.8208 10.6233C50.1974 11.3362 50.0951 12.2647 50.2497 13.1435C49.6763 13.6338 49.1599 14.2615 49.0838 14.9602Z" fill="black"/>
<path id="Vector_36" d="M52.634 23.0254C52.634 25.4769 54.3234 27.4713 56.3983 27.4713C58.4732 27.4713 60.1626 25.4769 60.1626 23.0254C60.1626 22.8715 60.1626 22.7199 60.1436 22.5706C61.3785 21.7961 62.2709 22.3148 62.5849 22.5706C62.6398 23.6913 63.1187 24.7498 63.9255 25.5333C64.7322 26.3169 65.807 26.7674 66.9338 26.7944C68.0606 26.8214 69.1559 26.4229 69.9996 25.6789C70.8433 24.9349 71.3729 23.9006 71.4818 22.7838L77.026 23.3428L77.1259 22.3409L71.4699 21.8198C71.3377 20.7742 70.8364 19.8093 70.0556 19.0976C69.2748 18.3859 68.2653 17.9736 67.2073 17.9343C66.1494 17.895 65.1118 18.2313 64.2799 18.8832C63.448 19.535 62.876 20.46 62.6658 21.4929C62.2396 21.2947 61.7722 21.1998 61.302 21.2158C60.8318 21.2319 60.372 21.3585 59.9604 21.5853C59.4512 19.8443 58.0568 18.589 56.4078 18.589C54.3234 18.5795 52.634 20.5739 52.634 23.0254ZM63.5367 22.3385C63.5363 21.6488 63.7413 20.9745 64.1259 20.4008C64.5104 19.8271 65.0573 19.3799 65.6973 19.1156C66.3373 18.8514 67.0416 18.782 67.7212 18.9162C68.4008 19.0505 69.0251 19.3824 69.5152 19.8699C70.0053 20.3574 70.3391 20.9787 70.4744 21.6551C70.6098 22.3315 70.5405 23.0326 70.2755 23.6699C70.0105 24.3071 69.5616 24.8518 68.9855 25.235C68.4095 25.6182 67.7322 25.8228 67.0393 25.8228C66.111 25.8221 65.2208 25.4549 64.5642 24.8017C63.9075 24.1485 63.538 23.2626 63.5367 22.3385ZM53.5977 23.0278C53.5977 21.1068 54.854 19.5412 56.3983 19.5412C57.9426 19.5412 59.1966 21.1068 59.1966 23.0278C59.1966 24.9487 57.9402 26.5144 56.3983 26.5144C54.8564 26.5144 53.5977 24.944 53.5977 23.0254V23.0278Z" fill="#2D2D2C"/>
<path id="Vector_37" d="M32.3513 233.942C32.3729 233.633 32.4742 233.335 32.6455 233.076C32.8169 232.818 33.0524 232.608 33.3293 232.466C35.2876 231.536 42.4903 228.627 44.42 227.019C45.9167 225.773 47.1921 223.106 47.6894 221.976L61.2525 222.326C62.1305 225.806 62.8253 232.533 62.9657 233.933L32.3513 233.942Z" fill="#E0E0E0"/>
<path id="Vector_38" d="M32.3418 236.998H62.949V233.94H32.3418V236.998Z" fill="#2B2B2B"/>
<path id="Vector_39" d="M75.9647 222.45C76.1717 222.142 76.2217 220.026 76.2193 218.368L87.2862 216.14C88.5735 219.058 90.6175 226.088 91.7073 229.911C92.1428 231.457 92.4212 232.476 92.4212 232.476C92.4212 232.476 86.1798 236.853 84.4785 236.995C82.7771 237.137 73.8375 234.864 73.8375 233.746C73.8375 233.419 73.9683 232.407 74.1658 231.114C74.656 227.935 75.5626 223.051 75.9647 222.45Z" fill="#2B2B2B"/>
<path id="Vector_40" d="M76.2193 218.368L87.2862 216.14C88.5735 219.058 90.6175 226.088 91.7073 229.911C90.0226 231.055 85.8253 233.824 84.4785 233.937C82.9699 234.063 75.791 232.305 74.1658 231.116C74.656 227.94 75.5626 223.063 75.9647 222.452C76.1717 222.142 76.2217 220.026 76.2193 218.368Z" fill="#E0E0E0"/>
<path id="Vector_41" d="M43.1637 221.976C43.5325 208.404 42.7306 176.498 42.5759 174.366C42.4213 172.183 43.8918 149.193 44.9435 133.351C45.5098 124.808 45.9524 118.344 45.9524 118.344H85.4921L85.3708 131.447L86.3654 171.441C86.3654 171.441 91.3956 205.042 93.1302 219.425C86.8817 222.002 79.4816 222.402 72.7334 221.613L69.9328 173.161L63.206 135.223L62.8229 132.84L62.7039 135.237L60.9336 171.441L64.7407 224.112C57.4381 225.609 50.2236 224.145 43.1637 221.976Z" fill="#123458"/>
<path id="Vector_42" d="M50.8327 175.856C49.405 176.626 47.5491 175.889 46.5616 174.618C43.4326 170.591 44.0393 162.064 50.7447 164.16C52.5245 164.719 54.2687 165.979 54.5161 167.933C54.7731 169.939 52.6387 174.878 50.8327 175.856Z" fill="#29537A"/>
<path id="Vector_43" d="M81.1567 173.012C81.083 173.997 80.9188 174.999 80.4429 175.854C79.967 176.709 79.1223 177.434 78.1372 177.547C76.2645 177.761 74.8654 175.889 74.1444 174.146C73.5425 172.699 73.1051 171.19 72.8405 169.646C72.7239 168.954 72.6454 168.225 72.9071 167.568C73.7328 165.524 77.7945 164.458 79.591 165.73C81.5208 167.107 81.309 171.001 81.1567 173.012Z" fill="#29537A"/>
<path id="Vector_44" d="M83.165 118.337H85.4921L85.3708 131.44L86.3654 171.441C86.3654 171.441 91.3956 205.042 93.1302 219.425C92.671 219.614 92.2022 219.794 91.7311 219.96L83.6885 171.441L83.165 118.337Z" fill="#072843"/>
<path id="Vector_45" d="M79.1985 118.337C79.81 122.126 81.9562 125.637 85.4088 127.207V126.129C82.5249 124.63 80.7047 121.629 80.1526 118.337H79.1985Z" fill="#123458"/>
<path id="Vector_46" d="M75.2723 118.337C75.9279 120.908 77.1858 123.287 78.9431 125.281C80.7005 127.275 82.9072 128.826 85.3827 129.808V128.768C83.1694 127.83 81.1985 126.405 79.618 124.6C78.0375 122.795 76.8885 120.657 76.2574 118.346L75.2723 118.337Z" fill="#123458"/>
<path id="Vector_47" d="M45.4622 125.563C48.1844 124.22 50.1855 121.349 50.7613 118.337H49.7715C49.2456 120.807 47.6823 123.164 45.5384 124.429C45.5122 124.791 45.4884 125.172 45.4622 125.563Z" fill="#123458"/>
<path id="Vector_48" d="M45.2528 128.69C47.459 127.909 49.3972 126.521 50.8424 124.687C52.2875 122.853 53.1802 120.648 53.4168 118.329H52.465C52.2336 120.382 51.446 122.333 50.1866 123.975C48.9271 125.616 47.2431 126.885 45.3147 127.648C45.2981 127.996 45.2743 128.344 45.2528 128.69Z" fill="#123458"/>
<path id="Vector_49" d="M62.1162 127.78L62.83 132.84L62.7134 135.237L60.9431 171.441L64.7502 224.112C64.0491 224.258 63.3487 224.374 62.6492 224.463L58.4327 171.441L62.1162 127.78Z" fill="#072843"/>
<path id="Vector_50" d="M94.3129 78.6408C94.3129 78.6408 103.303 107.488 99.7285 111.681C96.1546 115.873 83.7385 112.936 83.7385 112.936L80.0312 108.239L81.221 76.7601L89.0923 68.053L94.3129 78.6408Z" fill="#3D1313"/>
<path id="Vector_51" d="M91.3837 56.4325C91.3837 56.4325 98.2675 56.7689 99.7285 59.7865C101.19 62.8041 100.495 89.4085 97.7869 87.8476C95.079 86.2867 88.15 78.1931 88.15 78.1931L91.3837 56.4325Z" fill="#763230"/>
<path id="Vector_52" d="M45.5574 121.307L57.0789 122.017L59.6963 118.32L64.7574 122.496L85.259 123.773H85.3089C85.3089 123.773 96.8089 55.9019 82.5987 45.8661C81.479 45.0595 80.1308 44.6282 78.7487 44.6344L75.1153 41.3325L68.5455 46.7117L64.2363 50.2315L64.5123 44.6533C64.5123 44.6533 61.5047 46.4511 61.0811 47.8913L60.9955 47.9055C58.0857 48.4555 55.3703 49.7511 53.117 51.6645C52.998 51.7687 52.8791 51.8705 52.7625 51.9795C51.6681 52.9866 50.737 54.1564 50.0023 55.4472C46.0309 62.4346 45.5788 118.481 45.5622 121.212C45.5574 121.257 45.5574 121.288 45.5574 121.307Z" fill="#65508A"/>
<path id="Vector_53" d="M64.2363 50.2315C64.2363 50.2315 58.8492 109.03 59.6868 118.337C59.6868 118.337 57.6571 79.3845 64.2363 50.2315Z" fill="#514078"/>
<path id="Vector_54" d="M66.2422 68.683C66.2422 68.9843 66.3319 69.2787 66.5 69.5292C66.6682 69.7797 66.9071 69.9749 67.1867 70.0901C67.4663 70.2054 67.7739 70.2356 68.0707 70.1768C68.3675 70.118 68.6401 69.973 68.8541 69.76C69.068 69.547 69.2138 69.2756 69.2728 68.9802C69.3318 68.6847 69.3015 68.3785 69.1857 68.1002C69.0699 67.8219 68.8738 67.5841 68.6222 67.4167C68.3706 67.2494 68.0748 67.16 67.7722 67.16C67.3664 67.16 66.9772 67.3205 66.6903 67.6061C66.4034 67.8917 66.2422 68.2791 66.2422 68.683Z" fill="#514078"/>
<path id="Vector_55" d="M65.2166 79.4911C65.2166 79.7923 65.3064 80.0868 65.4745 80.3373C65.6426 80.5877 65.8815 80.7829 66.1611 80.8982C66.4407 81.0135 66.7483 81.0436 67.0451 80.9849C67.3419 80.9261 67.6145 80.7811 67.8285 80.5681C68.0425 80.3551 68.1882 80.0837 68.2472 79.7882C68.3062 79.4928 68.2759 79.1866 68.1601 78.9083C68.0443 78.63 67.8482 78.3921 67.5966 78.2247C67.345 78.0574 67.0492 77.9681 66.7466 77.9681C66.3408 77.9681 65.9517 78.1285 65.6647 78.4142C65.3778 78.6998 65.2166 79.0872 65.2166 79.4911Z" fill="#514078"/>
<path id="Vector_56" d="M64.1911 90.2968C64.1906 90.5986 64.2801 90.8937 64.4482 91.1449C64.6163 91.396 64.8554 91.5919 65.1354 91.7077C65.4153 91.8236 65.7235 91.8541 66.021 91.7955C66.3184 91.7369 66.5916 91.5918 66.8062 91.3786C67.0207 91.1654 67.1669 90.8936 67.2262 90.5976C67.2855 90.3016 67.2553 89.9948 67.1394 89.7159C67.0235 89.4371 66.8271 89.1987 66.5751 89.031C66.323 88.8633 66.0266 88.7737 65.7235 88.7737C65.5223 88.7734 65.3231 88.8126 65.1372 88.889C64.9513 88.9654 64.7824 89.0775 64.64 89.219C64.4977 89.3604 64.3848 89.5284 64.3078 89.7134C64.2307 89.8983 64.1911 90.0966 64.1911 90.2968Z" fill="#514078"/>
<path id="Vector_57" d="M63.1679 101.105C63.1679 101.406 63.2576 101.701 63.4258 101.951C63.5939 102.201 63.8328 102.397 64.1124 102.512C64.392 102.627 64.6996 102.657 64.9964 102.599C65.2932 102.54 65.5658 102.395 65.7798 102.182C65.9937 101.969 66.1395 101.697 66.1985 101.402C66.2575 101.107 66.2272 100.8 66.1114 100.522C65.9956 100.244 65.7995 100.006 65.5479 99.8385C65.2963 99.6711 65.0005 99.5818 64.6979 99.5818C64.2921 99.5818 63.903 99.7422 63.616 100.028C63.3291 100.313 63.1679 100.701 63.1679 101.105Z" fill="#514078"/>
<path id="Vector_58" d="M64.5099 44.6557L64.2363 50.2315L60.7504 55.4424C60.7765 51.5461 60.9193 48.4431 61.0835 47.8865C61.5023 46.4535 64.5099 44.6557 64.5099 44.6557Z" fill="#836FB2"/>
<path id="Vector_59" d="M64.2339 50.2315L69.1975 56.4325L78.7416 44.6557L75.1081 41.3515L64.2339 50.2315Z" fill="#836FB2"/>
<path id="Vector_60" d="M54.0188 50.9397C54.0188 50.9397 48.5794 51.8184 48.0916 54.0923C47.6038 56.3662 46.2546 90.9979 46.2546 90.9979L54.0188 50.9397Z" fill="#763230"/>
<path id="Vector_61" d="M137.664 25.2093C137.503 26.2657 136.713 27.1042 135.951 27.8574C134.574 29.2383 133.291 30.8111 131.906 32.192L129.7 36.15L124.649 33.6511L123.166 32.9168L125.389 29.1057C124.163 26.5381 123.216 23.7147 123.085 20.8771C123.031 19.7307 123.164 18.5748 122.983 17.4426C122.745 15.9977 122.031 14.6831 121.627 13.2738C121.501 12.9582 121.496 12.608 121.61 12.2884C121.721 12.1028 121.889 11.9576 122.089 11.8744C122.289 11.7912 122.511 11.7744 122.721 11.8265C123.141 11.9394 123.523 12.1618 123.828 12.4708C123.864 12.5021 123.899 12.5354 123.933 12.5703C125.389 13.9234 126.361 15.7135 126.7 17.6676C126.714 17.9248 126.804 18.1722 126.959 18.3782C127.136 18.521 127.353 18.604 127.58 18.615C128.956 18.814 130.357 18.3379 131.556 17.6344C132.056 17.3431 132.572 16.9996 133.151 17.0138C133.991 17.0399 134.6 17.7979 135.054 18.5037C135.936 19.8981 136.675 21.3772 137.26 22.9188C137.536 23.6555 137.781 24.4371 137.664 25.2093Z" fill="#F69889"/>
<path id="Vector_62" d="M127.131 28.9399L124.656 33.6511L123.173 32.9168L125.389 29.1057C124.163 26.5381 123.216 23.7147 123.085 20.8771C123.031 19.7307 123.164 18.5748 122.983 17.4426C122.745 15.9977 122.031 14.6831 121.627 13.2738C121.501 12.9582 121.496 12.608 121.61 12.2884C121.721 12.1028 121.889 11.9576 122.089 11.8744C122.289 11.7912 122.511 11.7744 122.721 11.8265C123.141 11.9394 123.523 12.1618 123.828 12.4708C123.864 12.5021 123.899 12.5354 123.933 12.5703C123.657 12.6035 123.364 12.5703 123.133 12.7195C122.531 13.0938 122.94 13.9915 123.262 14.6144C124.028 16.1114 123.894 17.8831 123.975 19.5601C124.183 22.9079 125.271 26.1425 127.131 28.9399Z" fill="#FBBD8E"/>
<path id="Vector_63" d="M131.13 24.205C131.794 25.5861 132.12 27.1038 132.082 28.6343C132.477 27.1942 132.591 25.638 132.125 24.2192C131.659 22.8004 130.547 21.5403 129.098 21.1518C128.829 21.0604 128.544 21.0242 128.261 21.0452C128.499 21.5427 129.401 21.9453 129.805 22.3575C130.339 22.9027 130.786 23.5257 131.13 24.205Z" fill="#F47C6F"/>
<path id="Vector_64" d="M138 25.6191C136.187 27.1942 133.241 27.514 133.241 27.514C132.848 27.0903 132.52 26.6115 132.268 26.0928C132.144 25.8559 132.03 25.6191 131.925 25.3704C131.682 24.7888 131.475 24.1932 131.304 23.5868C131.223 23.3144 131.147 23.0396 131.081 22.7649C130.897 22.0306 130.747 21.2963 130.631 20.607C130.576 20.311 130.531 20.0244 130.488 19.7496C130.379 19.0011 130.302 18.3474 130.25 17.8547C130.193 17.2886 130.172 16.9428 130.172 16.9428C132.182 16.0427 135.644 16.3933 135.644 16.3933C136.173 17.0712 136.595 17.8252 136.896 18.6292C138.159 21.8245 138 25.6191 138 25.6191Z" fill="#FBBD8E"/>
<path id="Vector_65" d="M133.988 19.399C133.988 19.399 133.717 19.5459 133.303 19.7354C132.785 19.9758 132.253 20.1831 131.709 20.356C131.33 20.472 130.964 20.5573 130.633 20.626C130.578 20.3299 130.533 20.0433 130.49 19.7686C130.776 19.5978 131.081 19.461 131.399 19.3611C131.993 19.1855 132.618 19.1379 133.232 19.2214C133.489 19.2539 133.743 19.3135 133.988 19.399Z" fill="#F47C6F"/>
<path id="Vector_66" d="M134.431 22.3172C134.431 22.3172 134.193 22.4806 133.8 22.6843C133.322 22.9436 132.823 23.163 132.308 23.3404C131.978 23.4471 131.642 23.5357 131.302 23.6057C131.221 23.3333 131.145 23.0586 131.078 22.7838C131.359 22.6033 131.661 22.4584 131.978 22.3527C132.533 22.1747 133.12 22.1134 133.7 22.1727C133.948 22.1967 134.193 22.2451 134.431 22.3172Z" fill="#F47C6F"/>
<path id="Vector_67" d="M135.637 24.7664C135.637 24.7664 135.38 24.9393 134.973 25.1595C134.463 25.4345 133.928 25.6636 133.377 25.8441C133.015 25.9594 132.645 26.0488 132.27 26.1117C132.146 25.8749 132.032 25.638 131.928 25.3893C132.28 25.1627 132.661 24.9835 133.06 24.8564C133.644 24.6748 134.257 24.6049 134.866 24.6503C135.126 24.6651 135.384 24.704 135.637 24.7664Z" fill="#F47C6F"/>
<path id="Vector_68" d="M136.913 18.6506C136.321 18.2162 135.654 17.8949 134.945 17.7031C134.284 17.5682 133.607 17.5252 132.934 17.5752C132.148 17.5735 131.363 17.6385 130.588 17.7694C130.474 17.7967 130.362 17.8348 130.255 17.8831C130.198 17.317 130.176 16.9712 130.176 16.9712C132.187 16.0711 135.649 16.4217 135.649 16.4217C136.181 17.0967 136.607 17.8482 136.913 18.6506Z" fill="#FED9BA"/>
<path id="Vector_69" d="M75.4031 61.4374C75.8077 66.8332 92.4259 70.9119 106.524 76.9448C108.041 77.5973 109.744 77.6844 111.32 77.1904C112.896 76.6963 114.241 75.654 115.109 74.2541C120.044 66.2694 130.624 41.6239 132.289 32.2867L124.38 29.6457L122.771 29.1033C122.771 29.1033 109.87 52.5527 106.37 60.1655C106.37 60.1655 90.4129 50.537 85.6016 48.6682C84.5803 49.1667 83.7179 49.9375 83.1103 50.8947C82.306 52.105 75.2104 58.8722 75.4031 61.4374Z" fill="#65508A"/>
<path id="Vector_70" d="M103.329 61.1319C103.329 61.1319 102.967 65.7815 103.457 66.0894C103.947 66.3973 105.784 62.7733 105.784 62.7733C105.784 62.7733 107.659 66.9374 109.292 67.8967C110.924 68.856 107.526 61.8188 107.526 61.8188C109.851 59.6681 121.437 35.7497 124.375 29.6339L122.771 29.1033C122.771 29.1033 109.87 52.5527 106.37 60.1655C106.37 60.1655 88.9781 48.3531 83.3578 47.8889C83.3578 47.8889 83.5791 48.0002 82.4869 49.6535L103.329 61.1319Z" fill="#836FB2"/>
<path id="Vector_71" d="M90.0322 50.3523C90.0322 50.3523 85.7301 46.5317 82.5892 45.885C82.5892 45.885 69.6853 92.6322 89.0923 100.558C89.0923 100.558 75.8077 81.7365 90.0322 50.3523Z" fill="#763230"/>
<path id="Vector_72" d="M99.3978 32.9523L98.9576 34.3475L98.5198 32.9523C97.9848 31.1938 96.814 29.695 95.2337 28.7457C96.8142 27.7953 97.9849 26.2958 98.5198 24.5366L98.9576 23.1415L99.3978 24.5366C99.9327 26.2958 101.103 27.7953 102.684 28.7457C101.104 29.695 99.9328 31.1938 99.3978 32.9523Z" fill="#836FB2"/>
<path id="Vector_73" d="M94.3676 23.7005L94.063 24.6692L93.7584 23.7005C93.3876 22.4785 92.5745 21.437 91.4765 20.7776C92.5743 20.1191 93.3875 19.0784 93.7584 17.8571L94.063 16.8883L94.3676 17.8571C94.7393 19.078 95.5523 20.1184 96.6495 20.7776C95.5521 21.4377 94.7392 22.4789 94.3676 23.7005Z" fill="#836FB2"/>
<path id="Vector_74" d="M45.7858 29.0654L45.3456 27.6703L44.9078 29.0654C44.3752 30.8224 43.208 32.3209 41.6313 33.2721C43.2118 34.2224 44.3825 35.7219 44.9173 37.4811L45.3552 38.8739L45.7954 37.4811C46.3302 35.7219 47.5009 34.2224 49.0814 33.2721C47.4975 32.3245 46.3232 30.8255 45.7858 29.0654Z" fill="#836FB2"/>
<path id="Vector_75" d="M40.7556 38.3173L40.4415 37.3485L40.137 38.3173C39.7653 39.5388 38.9524 40.5801 37.855 41.2401C38.9523 41.8993 39.7652 42.9398 40.137 44.1607L40.4415 45.1294L40.7461 44.1607C41.1186 42.9402 41.9314 41.9 43.028 41.2401C41.9348 40.5776 41.1257 39.5369 40.7556 38.3173Z" fill="#836FB2"/>
</g>
<defs>
<clipPath id="clip0_6_361">
<rect width="138" height="237" fill="white"/>
</clipPath>
</defs>
</svg>
