<svg width="124" height="266" viewBox="0 0 124 266" fill="none" xmlns="http://www.w3.org/2000/svg">
<g id="woman-ok" clip-path="url(#clip0_6_438)">
<path id="Vector" d="M120.805 66.2151C120.096 66.9952 118.995 67.2435 117.967 67.451C116.093 67.8308 114.19 68.418 112.322 68.7949L108.369 70.84L107.593 69.4756L105.633 66.0252L104.979 64.8741L108.715 62.7005C109.121 59.9279 109.897 57.0939 111.329 54.6923C111.91 53.7253 112.654 52.8459 113.124 51.8204C113.723 50.5086 113.856 49.0332 114.286 47.663C114.357 47.3361 114.543 47.0458 114.809 46.8449C115.001 46.7511 115.218 46.7226 115.428 46.7637C115.637 46.8048 115.828 46.9133 115.971 47.0728C116.25 47.3951 116.44 47.7863 116.52 48.2064C116.52 48.2502 116.54 48.2999 116.549 48.3466C116.989 50.2533 116.8 52.2524 116.009 54.0408C115.883 54.2573 115.822 54.5061 115.834 54.7566C115.896 54.974 116.025 55.1657 116.203 55.303C117.208 56.2174 118.609 56.5943 119.965 56.6732C120.546 56.7083 121.127 56.7112 121.601 57.0384C122.269 57.5175 122.347 58.4729 122.327 59.2997C122.283 60.928 122.078 62.5478 121.714 64.135C121.542 64.8712 121.313 65.6454 120.805 66.2151Z" fill="#F69889"/>
<path id="Vector_2" d="M114.414 65.9756C113.653 66.7118 107.596 69.4815 107.596 69.4815L105.635 66.0311L104.982 64.88L108.717 62.7063C109.124 59.9337 109.9 57.0998 111.332 54.6982C111.913 53.7312 112.656 52.8517 113.127 51.8263C113.725 50.5145 113.859 49.0391 114.289 47.6688C114.36 47.3419 114.546 47.0516 114.812 46.8508C115.004 46.7569 115.221 46.7284 115.431 46.7695C115.64 46.8106 115.831 46.9191 115.974 47.0787C116.253 47.401 116.443 47.7922 116.523 48.2122C116.523 48.2561 116.543 48.3057 116.552 48.3525C116.992 50.2591 116.803 52.2582 116.012 54.0467C115.886 54.2632 115.825 54.5119 115.837 54.7625C115.837 54.7625 117.342 59.1244 116.523 62.1132C116.134 63.5506 115.166 65.2393 114.414 65.9756Z" fill="#FBBD8E"/>
<path id="Vector_3" d="M110.208 63.5127L105.781 66.2969L104.935 64.7193L108.712 62.6917C109.118 59.9162 109.894 57.0822 111.326 54.6807C111.907 53.7136 112.648 52.8371 113.121 51.8087C113.72 50.4969 113.853 49.0245 114.283 47.6513C114.354 47.3236 114.54 47.0323 114.806 46.8303C114.999 46.7373 115.216 46.7095 115.425 46.7511C115.635 46.7927 115.825 46.9015 115.968 47.0611C116.247 47.3832 116.436 47.7746 116.514 48.1947C116.514 48.2385 116.537 48.2882 116.546 48.335C116.328 48.1774 116.078 48.0697 115.814 48.0194C115.123 47.9961 114.963 48.9573 114.882 49.6468C114.684 51.2916 113.609 52.6735 112.764 54.0964C111.105 56.9553 110.224 60.2027 110.208 63.5127Z" fill="#FED9BA"/>
<path id="Vector_4" d="M116.041 61.8181C115.832 63.3144 115.274 64.7399 114.414 65.9785C115.524 65.0114 116.465 63.799 116.863 62.3791C117.261 60.9592 117.046 59.3202 116.081 58.21C115.914 57.9861 115.703 57.8 115.46 57.6636C115.373 58.1954 115.895 59.0251 115.997 59.5831C116.125 60.3215 116.14 61.0753 116.041 61.8181Z" fill="#F47C6F"/>
<path id="Vector_5" d="M120.84 66.7323C118.516 67.0244 115.945 65.6951 115.945 65.6951C115.855 65.1364 115.848 64.5672 115.924 64.0064C115.951 63.7522 115.991 63.4893 116.041 63.2234C116.163 62.6136 116.321 62.0117 116.514 61.4208C116.596 61.1549 116.683 60.8891 116.779 60.6261C117.031 59.9249 117.313 59.2413 117.595 58.6102C117.711 58.3385 117.833 58.0785 117.946 57.8302C118.266 57.1553 118.562 56.5768 118.789 56.1502C119.053 55.6536 119.224 55.3585 119.224 55.3585C121.348 55.7208 123.977 57.909 123.977 57.909C124.036 58.7532 123.967 59.6016 123.771 60.4245C123.047 63.7113 120.84 66.7323 120.84 66.7323Z" fill="#FBBD8E"/>
<path id="Vector_6" d="M120.988 59.44C120.988 59.44 120.697 59.4137 120.247 59.3406C119.695 59.2545 119.15 59.1325 118.614 58.9754C118.269 58.8709 117.928 58.749 117.595 58.6102C117.711 58.3385 117.833 58.0785 117.946 57.8302C118.884 57.8698 119.778 58.2413 120.471 58.879C120.662 59.0473 120.835 59.2353 120.988 59.44Z" fill="#F47C6F"/>
<path id="Vector_7" d="M119.756 62.0898C119.756 62.0898 119.466 62.0898 119.044 62.046C118.514 61.997 117.988 61.9041 117.473 61.7685C117.147 61.6752 116.827 61.5631 116.514 61.4325C116.595 61.1666 116.683 60.9008 116.779 60.6378C117.105 60.6432 117.43 60.6893 117.746 60.7751C118.294 60.9346 118.803 61.2061 119.242 61.5727C119.43 61.7272 119.602 61.9004 119.756 62.0898Z" fill="#F47C6F"/>
<path id="Vector_8" d="M119.393 64.7427C119.393 64.7427 119.102 64.7427 118.641 64.7018C118.076 64.6484 117.517 64.5448 116.97 64.3921C116.613 64.2871 116.264 64.1582 115.924 64.0064C115.951 63.7522 115.991 63.4893 116.041 63.2234C117.054 63.2408 118.034 63.5929 118.829 64.2255C119.032 64.3805 119.221 64.5536 119.393 64.7427Z" fill="#F47C6F"/>
<path id="Vector_9" d="M123.771 60.4245C123.529 59.7434 123.163 59.1134 122.693 58.5664C122.232 58.0931 121.707 57.6878 121.133 57.3627C120.497 56.9297 119.824 56.5533 119.123 56.2379C119.015 56.1966 118.903 56.1672 118.789 56.1502C119.053 55.6536 119.224 55.3585 119.224 55.3585C121.348 55.7208 123.977 57.909 123.977 57.909C124.036 58.7532 123.967 59.6016 123.771 60.4245Z" fill="#FED9BA"/>
<path id="Vector_10" d="M69.1329 85.2231C71.5323 88.3842 73.6732 90.631 75.4858 91.4665C75.6507 91.5448 75.8205 91.6122 75.9942 91.6681C84.9992 94.5897 110.641 69.1192 110.641 69.1192L109.397 67.4101L107.776 65.1751L106.762 63.7844C106.762 63.7844 88.3398 73.1715 80.6187 78.7313L80.581 78.7605C80.1365 79.0819 79.7269 79.3916 79.358 79.6837C79.358 79.6837 77.6935 76.6686 76.6826 75.2867L69.1329 85.2231Z" fill="#FBBD8E"/>
<path id="Vector_11" d="M110.19 68.2515C105.281 73.3906 86.289 90.3914 75.4887 91.4665C75.6536 91.5448 75.8234 91.6121 75.9971 91.6681C83.1169 93.9645 102.431 76.8439 109.461 70.2674L111.204 69.3705L110.19 68.2515Z" fill="#F69889"/>
<path id="Vector_12" d="M79.3551 79.6837L107.709 65.0757L106.762 63.7756C106.762 63.7756 88.3398 73.1627 80.6187 78.7225L80.581 78.7517L79.3551 79.6837Z" fill="#FED9BA"/>
<path id="Vector_13" d="M77.5221 74.1677L70.3878 83.5607L68.0813 86.5933C67.0704 85.7811 66.0218 84.8959 64.9412 83.9639C61.6296 81.0949 58.0654 77.7379 54.6609 74.4073L53.1213 59.1273C52.8105 56.1006 53.2985 52.9774 54.8642 50.3801C55.3145 49.6351 56.2614 49.6701 58.719 51.7006C59.8112 52.6034 70.2542 64.8478 70.2542 64.8478C73.0428 68.123 75.8344 71.8451 77.5221 74.1677Z" fill="#66508B"/>
<path id="Vector_14" d="M69.4495 84.5307L68.0901 86.5933C67.0792 85.7811 66.0305 84.8959 64.9499 83.9639L57.7371 77.3698V73.5162L69.4495 84.5307Z" fill="#123458"/>
<path id="Vector_15" d="M56.0406 49.9827C63.2215 51.2449 74.0218 67.6759 77.7197 73.9194L76.6797 75.2867L70.5795 66.5073C66.6463 60.8657 61.2026 54.5872 56.0406 49.9827Z" fill="#8D7EAF"/>
<path id="Vector_16" d="M45.3043 101.394L34.8468 125.059L31.7327 132.109C31.7327 132.109 15.5004 130.914 9.0138 121.2C2.52723 111.485 16.3631 81.4104 16.3631 81.4104L17.2781 81.1182L38.748 74.1502L45.3043 101.394Z" fill="#123458"/>
<path id="Vector_17" d="M34.8381 125.068L31.7241 132.118C31.7241 132.118 15.4917 130.923 9.0051 121.208C2.51853 111.494 16.3544 81.4192 16.3544 81.4192L17.2694 81.127C14.9281 90.1839 9.17067 119.634 31.7241 124.27C32.7752 124.481 33.8147 124.747 34.8381 125.068Z" fill="#275075"/>
<path id="Vector_18" d="M49.1736 258.386C49.1736 258.386 49.7894 262.161 50.2222 262.637C50.655 263.113 71.8693 262.637 71.8693 262.637L71.8402 259.348L59.1576 255.035L49.1736 258.386Z" fill="#FFF0E8"/>
<path id="Vector_19" d="M71.8402 259.348C71.8402 259.348 50.4836 260.934 49.3624 259.45C48.5955 258.436 48.8366 248.149 48.8366 248.149L54.6463 247.912C54.6463 247.912 72.7001 259.348 71.8402 259.348Z" fill="#F7921E"/>
<path id="Vector_20" d="M23.2941 259.707C22.7945 261.659 18.8671 264.516 17.0603 265.746C16.7999 265.924 16.4891 266.011 16.1748 265.996C15.8604 265.981 15.5595 265.863 15.3174 265.661C13.7342 264.338 10.4285 261.401 10.0886 259.707C9.98984 259.19 10.1729 258.202 10.5214 256.984C10.7916 256.002 11.175 254.869 11.5933 253.718C12.9092 250.095 14.597 246.273 14.597 246.273L21.1213 246.542C21.1213 246.542 22.6289 252.236 23.1808 256.283C23.1808 256.283 23.1808 256.306 23.1808 256.315C23.3929 257.782 23.4655 259.026 23.2941 259.707Z" fill="#FFF0E8"/>
<path id="Vector_21" d="M23.2011 256.283C22.4139 258.217 18.7858 260.855 17.069 262.024C16.8086 262.201 16.4978 262.289 16.1835 262.274C15.8691 262.259 15.5682 262.141 15.3261 261.939C14.0247 260.846 11.5497 258.664 10.5446 256.972C10.8148 255.991 11.1982 254.857 11.6165 253.706C12.9324 250.083 14.6202 246.262 14.6202 246.262L21.1445 246.53C21.1445 246.53 22.6405 252.236 23.2011 256.283Z" fill="#F7921E"/>
<path id="Vector_22" d="M63.1082 190.231C61.7632 194.146 58.26 250.241 58.26 250.241H48.0726C48.0726 250.241 44.0726 206.014 44.854 201.964C45.9172 196.413 49.4669 185.896 49.4669 185.896C49.0806 183.725 48.5025 141.175 48.5025 141.175L45.8155 140.958C45.8155 140.958 37.3595 187.631 34.8613 193.056C32.3631 198.482 22.7567 248.196 22.7567 248.196H12.764C12.764 248.196 14.6347 208.243 14.8787 204.997C15.3464 198.759 23.3319 183.289 23.3319 183.289C23.3319 183.289 22.9601 141.803 23.3319 135.53C23.3464 135.308 23.3609 135.08 23.3783 134.858C23.4481 133.914 23.5526 132.965 23.6834 132.012C23.7066 131.828 23.7327 131.65 23.7618 131.466C23.7908 131.282 23.8228 131.063 23.8548 130.861C23.8954 130.61 23.9361 130.356 23.9826 130.105C24.029 129.853 24.0523 129.684 24.093 129.474C24.4299 127.645 24.8569 125.819 25.3362 124.045C25.4544 123.607 25.5764 123.169 25.7022 122.731C25.7807 122.462 25.8562 122.193 25.9375 121.927C25.9956 121.731 26.0566 121.533 26.1176 121.343C26.4198 120.355 26.7315 119.39 27.053 118.448C27.1169 118.272 27.1779 118.094 27.2389 117.922C27.2999 117.749 27.3667 117.553 27.4306 117.372C27.4568 117.293 27.4858 117.218 27.512 117.142L27.5468 117.042C27.6369 116.794 27.724 116.546 27.8141 116.3C28.0174 115.751 28.2179 115.216 28.4212 114.693C28.6245 114.17 28.8192 113.671 29.0022 113.183C29.2752 112.496 29.5512 111.842 29.8126 111.222C29.8678 111.094 29.9201 110.962 29.9724 110.84C30.2338 110.235 30.4837 109.671 30.716 109.145C30.7761 109.015 30.8342 108.886 30.8903 108.759C31.3871 107.67 31.8112 106.779 32.1307 106.13C32.1946 105.996 32.2585 105.867 32.3166 105.753C32.3457 105.692 32.3718 105.639 32.4009 105.587C32.6129 105.16 32.732 104.935 32.732 104.935H62.7248C62.7248 104.935 62.9136 105.777 63.2215 107.211C63.3115 107.629 63.4074 108.088 63.512 108.605C63.5904 108.97 63.6717 109.358 63.7589 109.773C63.846 110.188 63.9332 110.591 64.0232 111.03C64.4967 113.3 65.0603 116.04 65.6296 118.95C66.8293 125.053 68.0784 131.916 68.6739 136.848C70.0247 147.903 64.4502 186.325 63.1082 190.231Z" fill="#113458"/>
<path id="Vector_23" d="M36.6129 105.099L35.6834 107.778C35.4161 108.549 35.1024 109.452 34.7451 110.451C34.3878 111.45 33.984 112.604 33.5599 113.782L32.8482 115.751L32.2063 117.483C30.382 122.435 28.459 127.399 27.4249 129.222C25.101 133.313 27.4249 181.653 27.4249 181.653C27.4249 181.653 18.5069 203.393 17.6442 204.264C16.9267 204.985 15.0124 237.31 14.3878 248.193H12.7553C12.7553 248.193 14.626 208.24 14.87 204.994C15.3377 198.756 23.3232 183.287 23.3232 183.287C23.3232 183.287 22.9514 141.8 23.3232 135.527C23.3377 135.305 23.3522 135.077 23.3697 134.855C23.4394 133.912 23.544 132.962 23.6747 132.01C23.6979 131.826 23.724 131.647 23.7531 131.463C23.7821 131.279 23.8141 131.06 23.8461 130.858C23.8867 130.607 23.9274 130.353 23.9739 130.102C24.0203 129.851 24.0436 129.681 24.0843 129.471C24.4212 127.642 24.8482 125.816 25.3275 124.042C25.4457 123.604 25.5677 123.166 25.6935 122.728C25.772 122.459 25.8475 122.19 25.9288 121.924C25.9869 121.728 26.0479 121.53 26.1089 121.34C26.4111 120.352 26.7228 119.387 27.0443 118.445C27.1082 118.269 27.1692 118.091 27.2302 117.919C27.2912 117.746 27.358 117.551 27.4219 117.369C27.4481 117.291 27.4771 117.215 27.5033 117.139L27.5381 117.039C27.6282 116.791 27.7153 116.543 27.8054 116.297C28.0087 115.748 28.2092 115.213 28.4125 114.69C28.6158 114.167 28.8105 113.668 28.9935 113.18C29.2665 112.493 29.5425 111.839 29.8039 111.219C29.8591 111.091 29.9114 110.959 29.9637 110.837C30.2251 110.232 30.475 109.668 30.7073 109.142C30.7674 109.012 30.8255 108.883 30.8816 108.757C31.3784 107.667 31.8025 106.776 32.122 106.127C32.1859 105.993 32.2498 105.864 32.3079 105.75C32.337 105.689 32.3631 105.636 32.3922 105.584C32.6042 105.157 32.7233 104.932 32.7233 104.932H35.3377L35.5846 104.964L36.6129 105.099Z" fill="#113458"/>
<path id="Vector_24" d="M65.6355 118.935C56.9557 122.763 41.6035 119.873 32.215 117.475C31.634 117.326 31.053 117.182 30.5214 117.033C29.8998 116.867 29.3101 116.703 28.7785 116.548C28.4474 116.458 28.1307 116.364 27.8286 116.28C27.9942 115.836 28.154 115.403 28.3195 114.971L28.4357 114.679C28.5868 114.281 28.7262 113.896 28.8889 113.51L29.0283 113.162C29.3014 112.476 29.5773 111.821 29.8388 111.202C29.862 111.149 29.8853 111.094 29.9056 111.041C29.9259 110.989 29.9666 110.892 29.9985 110.819C30.2164 110.317 30.4227 109.843 30.6231 109.396C30.6609 109.306 30.7015 109.215 30.7422 109.125C30.7829 109.034 30.8613 108.865 30.9165 108.739C31.4132 107.649 31.8373 106.758 32.1569 106.11C32.2208 105.975 32.2847 105.847 32.3428 105.733C32.3718 105.671 32.398 105.619 32.427 105.566C32.6391 105.14 32.7582 104.915 32.7582 104.915H62.7248C62.7248 104.915 62.9136 105.756 63.2215 107.191C63.3116 107.608 63.4074 108.067 63.512 108.584C63.5904 108.949 63.6718 109.338 63.7589 109.753C63.846 110.168 63.9332 110.571 64.0233 111.009C64.5026 113.285 65.0661 116.025 65.6355 118.935Z" fill="#323045"/>
<path id="Vector_25" d="M52.4415 184.744L52.1336 144.935L48.5025 141.172C48.5025 141.172 49.0835 183.722 49.4669 185.893C49.4669 185.893 45.9172 196.41 44.854 201.961C44.0726 206.005 48.0726 250.241 48.0726 250.241H50.3413L47.3115 204.842L52.4415 184.744Z" fill="#113458"/>
<path id="Vector_26" d="M29.1154 191.981C29.1684 192.168 29.2845 192.33 29.4437 192.44C29.6238 192.512 29.8243 192.512 30.0043 192.44C30.9397 192.18 31.695 191.485 32.2992 190.722C33.6122 189.068 36.395 183.383 32.4793 183.295C28.6332 183.216 28.1133 189.425 29.1154 191.981Z" fill="#29547A"/>
<path id="Vector_27" d="M55.3087 193.582C55.5991 194.43 56.0842 195.312 56.9266 195.61C57.2821 195.711 57.6566 195.724 58.0182 195.648C58.3798 195.572 58.7178 195.41 59.0036 195.175C59.5708 194.699 60.0388 194.115 60.3805 193.457C61.1092 192.308 61.6093 191.028 61.8533 189.688C62.2455 186.956 60.1627 183.383 57.0545 184.742C53.9463 186.1 54.3907 190.985 55.3087 193.582Z" fill="#29547A"/>
<path id="Vector_28" d="M36.3195 104.921C36.0054 105.799 35.5554 106.622 34.9862 107.36C34.8047 107.591 34.6107 107.811 34.4052 108.02C33.13 109.344 31.5497 110.279 29.8911 111.05C29.923 110.974 29.9521 110.901 29.984 110.828C30.2019 110.325 30.4081 109.852 30.6086 109.405C31.5865 108.889 32.492 108.244 33.3014 107.489C34.0613 106.765 34.6629 105.891 35.0675 104.921H36.3195Z" fill="#5F5F73"/>
<path id="Vector_29" d="M38.6405 104.921C38.6028 105.09 38.5592 105.259 38.5098 105.426C37.9623 107.389 36.9392 109.185 35.5323 110.653C34.7944 111.411 33.9739 112.083 33.0864 112.657C32.3417 113.14 31.5653 113.573 30.7625 113.951C29.9637 114.334 29.1416 114.676 28.3108 114.98L28.427 114.687C28.5781 114.29 28.7175 113.904 28.8802 113.519L29.008 113.469C30.7389 112.798 32.3558 111.861 33.801 110.691C34.0044 110.521 34.2019 110.343 34.382 110.159C35.8124 108.782 36.8488 107.043 37.3827 105.125C37.4031 105.055 37.4205 104.988 37.4379 104.921H38.6405Z" fill="#5F5F73"/>
<path id="Vector_30" d="M63.5178 108.59C62.7211 108.343 61.9828 107.935 61.3479 107.392C60.5176 106.682 59.8005 105.849 59.2215 104.921H60.5345C61.2272 105.899 62.1572 106.682 63.236 107.196C63.3115 107.614 63.4074 108.079 63.5178 108.59Z" fill="#5F5F73"/>
<path id="Vector_31" d="M64.0291 111.015C62.4113 110.662 60.901 109.925 59.6248 108.865C58.3487 107.804 57.3438 106.452 56.6943 104.921H57.955C58.5277 106.095 59.3418 107.133 60.3433 107.967C61.3448 108.801 62.511 109.412 63.7647 109.759C63.849 110.159 63.939 110.588 64.0291 111.015Z" fill="#5F5F73"/>
<path id="Vector_32" d="M28.7988 51.3588V55.1335L28.7582 74.6819L26.6638 78.3515L25.7923 79.9028L16.4793 94.5956L3.30283 90.891L1.60059 90.4118C7.72985 77.586 17.4379 60.0593 18.3442 58.9959C19.4423 57.7045 25.6703 53.4682 27.9681 51.9285H27.9884C28.2004 51.7824 28.3776 51.6627 28.5142 51.575L28.5897 51.5224L28.7611 51.4085L28.793 51.388L28.7988 51.3588Z" fill="#66508B"/>
<path id="Vector_33" d="M37.4931 49.6643C37.4931 49.6643 33.0893 52.4018 28.7785 55.1335C27.3261 56.0567 25.8736 56.98 24.6158 57.798C22.4517 59.2033 20.8395 60.2901 20.6681 60.5268C20.1743 61.1871 7.09079 84.1713 3.27089 90.891L1.56863 90.4118C7.6979 77.586 17.406 60.0593 18.3123 58.9959C19.4103 57.7045 25.6384 53.4682 27.9361 51.9285H27.9564C28.1685 51.7824 28.3457 51.6627 28.4822 51.575L28.5577 51.5224L28.7291 51.4085L28.7611 51.388L28.7872 51.3705C30.8584 50.0207 33.3885 48.6592 34.687 48.1947L34.7335 48.1772C35.1547 48.0253 35.573 47.885 35.9652 47.7623L37.4931 49.6643Z" fill="#8D7EAF"/>
<path id="Vector_34" d="M62.87 104.921C51.024 114.915 32.1568 106.402 32.1568 106.402C32.2324 103.436 29.1968 90.295 26.655 78.3544C25.9724 75.1406 25.3246 72.0028 24.7843 69.1777C23.9128 64.6579 26.5853 63.6266 27.0472 60.8248C27.3725 58.8235 25.3885 54.444 25.5948 54.0233C25.8446 53.5266 26.7567 52.7553 27.9448 51.9314H27.9651C28.1772 51.7854 28.3544 51.6656 28.4909 51.5779L28.5664 51.5253L28.7378 51.4114L28.7698 51.3909L28.7959 51.3734C30.8671 50.0236 33.3972 48.6622 34.6957 48.1976L34.7422 48.1801C35.1634 48.0282 35.5817 47.8879 35.9738 47.7652C37.5686 47.2598 38.8032 46.9764 38.8032 46.9764H48.488H48.6245H48.6391C49.2283 46.9831 49.8141 47.0665 50.382 47.2247C50.7248 47.3124 51.1053 47.4293 51.5439 47.5841C53.0642 48.1622 54.5143 48.912 55.8664 49.8191C57.0902 50.6345 58.2649 51.5223 59.3842 52.4778C66.5911 58.5664 66.2164 70.2382 61.9346 78.6144C60.6565 81.1095 62.87 104.921 62.87 104.921Z" fill="#66508B"/>
<path id="Vector_35" d="M24.8424 54.0438C24.8424 54.0438 27.9332 49.9331 31.6253 49.6614C31.6253 49.6614 37.6558 93.7308 26.4372 100.009C26.4372 100.012 33.5221 75.8214 24.8424 54.0438Z" fill="#123458"/>
<g id="book">
<path id="Vector_36" d="M34.8911 110.26L36.2302 109.907L38.0196 111.008L61.1772 105.13L59.7015 100.33L51.0014 72.0313L47.7858 71L25 78.0878L34.8911 110.26Z" fill="#951A22"/>
<path id="Vector_37" d="M36.2302 109.907L37.3021 110.567L39.4459 111.888L59.9339 105.519L58.5164 100.905L49.9906 73.1707L47.0538 72.0956L26.5657 78.4676L36.2302 109.907Z" fill="#FFF0E8"/>
<path id="Vector_38" d="M28.2167 79.1172L38.3912 112.216L61.176 105.131L51.0016 72.0323L28.2167 79.1172Z" fill="#AC1F27"/>
<path id="Vector_39" d="M33.6976 83.1818L34.8716 87.0032L49.9476 82.3182L48.7736 78.4968L33.6976 83.1818Z" fill="#FFF0E8"/>
<path id="Vector_40" d="M35.6289 110.418L37.0116 110.331L38.5541 111.762L62.406 110.535L61.8889 105.536L58.8359 76.0748L55.8816 74.4358L32.1605 76.9221L35.6289 110.418Z" fill="#D06A28"/>
<path id="Vector_41" d="M37.0117 110.331L37.9354 111.19L39.7829 112.904L61.1104 110.669L60.6137 105.869L57.6246 76.9951L54.9521 75.3649L33.6217 77.5999L37.0117 110.331Z" fill="#FFF0E8"/>
<path id="Vector_42" d="M35.1078 78.5543L38.6788 113.015L62.4021 110.528L58.8312 76.0676L35.1078 78.5543Z" fill="#F7921E"/>
<path id="Vector_43" d="M39.6841 83.6181L40.096 87.5933L55.7903 85.9482L55.3783 81.973L39.6841 83.6181Z" fill="#FFF0E8"/>
</g>
<path id="Vector_44" d="M39.0704 98.4842L38.78 104.912C38.78 104.912 38.6405 104.912 38.3762 104.956C34.4168 105.359 2.78287 108.517 0.755274 105.318C0.443406 104.797 0.245359 104.215 0.174301 103.612C-0.435721 99.3753 2.47205 91.8931 2.47205 91.8931L14.963 94.9841L12.8831 96.7868L38.3065 98.4345L39.0704 98.4842Z" fill="#FBBD8E"/>
<path id="Vector_45" d="M38.3791 102.817V104.964C34.4198 105.367 2.78575 108.526 0.758158 105.327C0.446291 104.806 0.248243 104.224 0.177185 103.62C8.36891 106.662 38.3791 102.817 38.3791 102.817Z" fill="#F89F80"/>
<path id="Vector_46" d="M38.3791 100.372L12.9092 96.7955L38.3181 98.4346L38.3297 98.4462L38.3791 100.372Z" fill="#FED9BA"/>
<path id="Vector_47" d="M57.4582 98.4608C57.3933 98.6486 57.2948 98.8228 57.1677 98.975C57.1677 98.975 48.9557 99.2029 48.671 99.4659C48.4706 99.6528 52.0958 100.483 54.3384 101.149C55.2505 101.417 55.9303 101.663 56.0406 101.827C56.0905 101.938 56.1163 102.058 56.1163 102.18C56.1163 102.302 56.0905 102.422 56.0406 102.534C55.9491 102.814 55.8284 103.085 55.6804 103.34C55.5376 103.611 55.3775 103.873 55.2011 104.123C55.2011 104.123 55.2011 104.219 55.2011 104.38C55.1837 104.593 55.1547 104.915 55.0995 105.256C55.065 105.471 55.0175 105.684 54.9571 105.893C54.7306 106.627 43.3377 106.501 42.26 105.937L40.8831 104.956L38.3762 104.976V98.902L38.9891 98.8552C39.1726 98.0877 39.4304 97.3401 39.7589 96.6232C39.8199 96.4917 39.8896 96.3573 39.9593 96.2229L40.0697 96.0242C40.1452 95.8927 40.2237 95.7584 40.305 95.6357C40.3863 95.5129 40.4793 95.3844 40.5693 95.2675C40.6594 95.1507 40.7581 95.0367 40.8598 94.9286C41.0065 94.7728 41.168 94.6319 41.342 94.5079C41.4292 94.4495 41.5192 94.394 41.6093 94.3414C41.7025 94.2908 41.7997 94.2478 41.8998 94.2128L42.35 94.0434L42.8032 93.8681C43.7093 93.5341 44.5486 93.0393 45.281 92.4073C45.4669 92.2349 45.647 92.0538 45.8271 91.8756L46.0043 91.6944L46.1844 91.5191C46.3664 91.342 46.5606 91.178 46.7654 91.0283C47.3144 90.6309 48.0087 90.3651 48.6594 90.5316L48.7175 90.5491C48.7561 90.5599 48.7932 90.5756 48.8279 90.5959C48.8442 90.6075 48.8597 90.6202 48.8743 90.6339C48.9235 90.7012 48.9546 90.78 48.9648 90.8629C48.975 90.9458 48.9638 91.0299 48.9324 91.1072C48.9324 91.1218 48.9324 91.1393 48.9324 91.1568C48.3871 92.9963 47.237 94.595 45.6703 95.6912C45.6703 95.6912 57.496 97 57.5802 97.7363C57.5925 97.9839 57.5508 98.2311 57.4582 98.4608Z" fill="#FBBD8E"/>
<path id="Vector_48" d="M56.0552 102.534C55.9637 102.814 55.8429 103.085 55.695 103.34C55.5522 103.611 55.3921 103.873 55.2157 104.123C55.2157 104.123 55.2157 104.219 55.2157 104.38C55.1983 104.593 55.1692 104.915 55.114 105.256C55.0795 105.471 55.032 105.684 54.9717 105.893C54.7451 106.627 43.3522 106.501 42.2745 105.937L40.8976 104.956L38.3907 104.976V102.817C39.2181 102.803 40.0455 102.852 40.8656 102.963C42.4662 103.188 44.0232 103.696 45.6064 104.041C47.1895 104.386 48.8569 104.579 50.4255 104.158C51.3524 103.906 52.2112 103.448 52.9383 102.817C52.9668 102.797 52.9939 102.776 53.0196 102.753C53.2024 102.579 53.3705 102.39 53.5221 102.189C53.7821 101.827 54.0614 101.48 54.3587 101.149C55.2709 101.417 55.9506 101.663 56.061 101.827C56.11 101.938 56.1348 102.059 56.1338 102.181C56.1328 102.303 56.106 102.423 56.0552 102.534Z" fill="#F89F80"/>
<path id="Vector_49" d="M55.6979 103.343L55.0501 103.264C53.964 103.1 52.8946 102.839 51.8547 102.484C51.1024 102.227 50.6318 102.013 50.5766 101.987C50.6376 101.987 51.1576 101.987 51.9419 102.054C52.7843 102.113 53.9317 102.212 55.1866 102.393L56.0581 102.534C55.9649 102.815 55.8442 103.086 55.6979 103.343Z" fill="#F47C6F"/>
<path id="Vector_50" d="M55.1024 105.248C53.8373 105.089 52.5908 104.806 51.3813 104.4C52.6527 104.266 53.9342 104.26 55.207 104.38C55.1867 104.593 55.1547 104.915 55.1024 105.248Z" fill="#F47C6F"/>
<path id="Vector_51" d="M48.8657 90.6455C48.851 90.6319 48.8355 90.6192 48.8192 90.6076C48.7845 90.5873 48.7474 90.5716 48.7088 90.5608L48.6507 90.5433C48 90.3768 47.3058 90.6426 46.7567 91.04C46.5519 91.1897 46.3578 91.3537 46.1758 91.5308L45.9956 91.7061L45.8185 91.8872C45.6383 92.0654 45.4582 92.2466 45.2723 92.419C44.5399 93.051 43.7007 93.5458 42.7945 93.8798C42.504 93.9996 42.1961 94.1135 41.894 94.2274C41.7005 94.3014 41.517 94.3996 41.3479 94.5196C41.1758 94.6461 41.0145 94.7868 40.8657 94.9403C40.764 95.0484 40.6681 95.1594 40.5752 95.2792C40.4822 95.399 40.3951 95.5188 40.3108 95.6473C40.2266 95.7759 40.1511 95.9044 40.0755 96.0359L39.9652 96.2346C39.8954 96.369 39.8257 96.5034 39.7647 96.6348C39.4732 97.2311 39.2398 97.8544 39.0675 98.4959C39.0675 98.4959 38.6928 98.455 38.3268 98.455L38.3733 100.38C38.7009 100.383 39.0241 100.305 39.3145 100.152C39.638 99.8996 39.8747 99.5512 39.9913 99.1562C40.4851 97.932 40.9005 96.6202 41.8068 95.6503C42.8758 94.5167 44.4735 94.058 45.7371 93.1464C46.6551 92.4832 47.4336 91.56 48.5142 91.2211C48.6449 91.1831 48.7843 91.1481 48.9208 91.1188C48.9526 91.0418 48.9643 90.9578 48.9546 90.875C48.945 90.7921 48.9143 90.7131 48.8657 90.6455Z" fill="#FED9BA"/>
<path id="Vector_52" d="M1.58025 87.2214L0 92.0771L15.7095 96.5706L18.0131 93.6723L1.58025 87.2214Z" fill="#FFF0E8"/>
<path id="Vector_53" d="M64.0668 42.8073C62.7077 43.2628 61.32 43.6269 59.9128 43.897C50.2571 45.8019 38.1874 44.3674 31.1924 43.1959C27.6805 42.6115 25.4466 42.0827 25.4466 42.0827C25.4466 42.0827 24.3224 32.5612 24.3224 28.9355C24.3172 26.862 24.4716 24.7912 24.7843 22.7417C26.7916 9.63544 34.7218 3.66368 35.2825 3.25174L35.3057 3.23713H50.1874L55.6456 6.06232L56.7378 6.62911L57.1532 6.84238L63.1285 9.93052L63.2767 15.0988L63.39 19.2066L64.0668 42.8073Z" fill="#530F2D"/>
<path id="Vector_54" d="M61.0574 40.9345C60.7831 41.9569 60.3993 42.9463 59.9129 43.8854C50.2571 45.7902 38.1874 44.3557 31.1925 43.1842C31.1788 43.167 31.1671 43.1484 31.1576 43.1287C28.7756 39.4854 27.7037 35.0855 27.5904 30.7294C27.4771 26.3733 28.2847 22.0347 29.4263 17.8305C30.321 14.532 31.4423 11.2511 33.3363 8.41421C34.7556 6.22113 36.7084 4.42905 39.0095 3.20792L39.3551 3.03846C41.9085 1.84061 44.7117 1.78802 47.5149 1.81139C51.1257 1.84061 54.809 3.53514 56.7466 6.59989C58.5127 9.38126 58.6725 12.8521 59.0995 16.1243C59.6398 20.273 60.6798 24.3428 61.3101 28.4798C61.9405 32.6167 62.1554 36.8998 61.0574 40.9345Z" fill="#3C1028"/>
<path id="Vector_55" d="M65.069 31.4452C65.0254 31.2173 64.9586 30.8872 64.8453 30.4869C64.7186 30.0132 64.5505 29.5517 64.3428 29.1079C64.0856 28.5448 63.7415 28.0261 63.3232 27.5711C62.8943 27.1142 62.3914 26.7339 61.8359 26.4463C61.3987 26.2204 60.9404 26.0384 60.4677 25.9029C60.2973 25.8542 60.1404 25.8133 59.9971 25.7802C59.8199 25.6137 59.7066 25.5231 59.7066 25.5231L59.7996 25.7364L59.5091 25.6809C59.2796 25.64 59.1518 25.6254 59.1518 25.6254L59.9855 26.1717C60.093 26.4288 60.2324 26.756 60.3922 27.1329C60.9354 28.3477 61.3352 29.6225 61.5832 30.931C61.7649 32.2519 61.83 33.5865 61.7778 34.919C61.7778 35.4565 61.7778 35.8948 61.7778 36.1986C61.7778 36.5025 61.7778 36.6748 61.7778 36.6748L61.9695 36.2395C62.0857 35.9474 62.26 35.5471 62.4198 35.0271C62.6239 34.413 62.7755 33.7826 62.8729 33.1426C63.001 32.3355 63.001 31.5131 62.8729 30.706C62.7325 29.8966 62.4586 29.1165 62.0625 28.3979C61.7623 27.8575 61.4132 27.346 61.0196 26.87C61.5923 27.2737 62.1244 27.7326 62.6086 28.2402C63.2772 29 63.877 29.8184 64.4009 30.6856L64.9296 31.4978L65.1358 31.7899L65.069 31.4452Z" fill="#3C1028"/>
<path id="Vector_56" d="M55.8664 49.8191C55.1111 52.4486 53.1097 56.2466 47.8257 58.0259C40.8105 60.3895 36.2062 51.5137 34.7538 48.1743C36.0881 47.7033 37.4455 47.3016 38.8206 46.9706H48.5055H48.642H48.6565C49.2457 46.9772 49.8316 47.0607 50.3994 47.2189C50.7422 47.3066 51.1227 47.4234 51.5614 47.5783C53.0759 48.1594 54.5201 48.9112 55.8664 49.8191Z" fill="#FBBD8E"/>
<path id="Vector_57" d="M47.451 56.6586L38.8032 46.9618C38.8206 45.5214 38.9397 44.978 39.0704 41.4108C39.207 37.4432 39.3609 33.7269 39.3609 33.7269L50.4866 38.1532C49.2433 40.9491 48.6855 44.1395 48.4967 47.1751C48.0959 53.5851 47.451 56.6586 47.451 56.6586Z" fill="#FBBD8E"/>
<path id="Vector_58" d="M50.4779 38.1561C49.2346 40.9521 48.6768 44.1425 48.488 47.178C48.1365 47.327 47.7937 47.4702 47.4713 47.5753C46.1786 48.0282 42.0305 44.3236 39.0704 41.4137C39.207 37.4461 39.3609 33.7299 39.3609 33.7299L50.4779 38.1561Z" fill="#F69889"/>
<path id="Vector_59" d="M62.1496 24.8628C61.923 25.8971 61.6355 26.9839 61.2782 28.1204C61.2782 28.1204 61.7778 33.724 61.191 34.9774C60.6042 36.2308 56.8569 44.0636 52.9179 43.5786C49.6325 43.1754 41.589 38.3343 38.8061 35.4507C38.2454 34.8664 37.8969 34.3814 37.833 34.0133C37.4495 31.7899 36.1336 21.9821 36.0087 21.1582C35.6746 18.932 34.7451 2.09479 54.9891 6.77812C56.7776 7.1853 58.4157 8.09158 59.7152 9.39286C61.0147 10.6942 61.9229 12.3377 62.3355 14.1347C62.9339 16.805 63.1286 20.3489 62.1496 24.8628Z" fill="#FBBD8E"/>
<path id="Vector_60" d="M61.2781 28.1204C61.2781 28.1204 61.7778 33.724 61.191 34.9774C60.6042 36.2308 56.8569 44.0636 52.9179 43.5786C49.6325 43.1754 41.589 38.3343 38.8061 35.4507C42.2251 37.8406 51.3493 43.9233 54.0218 43.0001C57.3391 41.8315 61.0835 34.4632 61.0138 33.7328C60.9441 33.0024 60.7233 28.2197 60.7233 28.2197C60.7233 28.2197 61.3914 26.7063 62.1467 24.8628C61.923 25.8971 61.6354 26.9839 61.2781 28.1204Z" fill="#FED9BA"/>
<path id="Vector_61" d="M38.7393 33.7299C37.689 33.6262 36.6709 33.3078 35.7474 32.7944C34.8238 32.281 34.0142 31.5832 33.3682 30.744C33.1692 30.4908 32.9904 30.2222 32.8337 29.9406C32.1075 28.6171 31.8983 24.0272 33.7661 22.9579C35.0762 22.2129 36.029 23.2968 36.4851 24.0126C36.595 24.1864 36.692 24.368 36.7756 24.556L38.7393 33.7299Z" fill="#FED9BA"/>
<path id="Vector_62" d="M38.7393 33.7299C37.6891 33.6262 36.671 33.3078 35.7474 32.7944C34.8238 32.281 34.0142 31.5832 33.3682 30.744C33.284 30.6154 33.2084 30.4927 33.1445 30.373C32.4183 29.0495 32.2092 24.4596 34.0799 23.3933C35.1402 22.7885 35.9652 23.3932 36.4851 24.0126C36.595 24.1864 36.6921 24.368 36.7756 24.556L38.7393 33.7299Z" fill="#FBBD8E"/>
<path id="Vector_63" d="M33.1678 26.607C33.0882 26.9775 33.1175 27.3632 33.252 27.7172C33.7633 29.2569 35.2854 30.4343 36.7582 31.5153C36.3298 30.7888 36.1492 29.9413 36.244 29.1021C36.276 28.8099 36.337 28.5177 36.3399 28.246C36.3515 27.1008 33.7197 24.4363 33.1678 26.607Z" fill="#F69889"/>
<path id="Vector_64" d="M37.4931 31.9623L37.4089 31.9156C37.3566 31.8834 37.2694 31.8425 37.1736 31.7753C36.9014 31.5934 36.6577 31.3719 36.4502 31.118C36.1642 30.7622 35.9652 30.3439 35.8693 29.8967C35.7538 29.3515 35.818 28.7834 36.0523 28.2782C36.0817 28.2077 36.1177 28.1402 36.1598 28.0766L36.1888 28.024L36.1656 27.9802L36.1162 27.8925C36.0813 27.8341 36.0494 27.7757 36.0145 27.7201C35.8785 27.5012 35.7311 27.2896 35.573 27.0862C35.419 26.8904 35.2593 26.7063 35.1024 26.5398C34.9587 26.3839 34.8033 26.2394 34.6376 26.1074C34.5 25.9982 34.3371 25.9258 34.1641 25.8971C34.026 25.8831 33.8867 25.9063 33.7604 25.9643C33.6857 25.9988 33.6237 26.056 33.5831 26.1279C33.5705 26.1527 33.5616 26.1793 33.557 26.2067C33.5507 26.1798 33.5507 26.1518 33.557 26.1249C33.581 26.0391 33.6345 25.9645 33.7081 25.9146C33.8439 25.8202 34.0049 25.7693 34.1699 25.7685C34.3921 25.773 34.6093 25.8354 34.8003 25.9497C35.0055 26.0686 35.1999 26.2054 35.3813 26.3587C35.5797 26.5242 35.7679 26.7018 35.9448 26.8904C36.1335 27.0937 36.3072 27.3105 36.4648 27.539L36.581 27.7201L36.6391 27.8107L36.7117 27.9422L36.764 28.0327C36.7498 28.0651 36.7333 28.0963 36.7146 28.1262L36.6391 28.2548C36.6045 28.3117 36.5744 28.3713 36.549 28.433C36.3403 28.8781 36.2578 29.3725 36.3108 29.8617C36.3597 30.2739 36.4922 30.6717 36.7001 31.0303C36.8522 31.2912 37.0378 31.5309 37.252 31.7432C37.3304 31.8191 37.4001 31.8747 37.4437 31.9156L37.4931 31.9623Z" fill="#F47C6F"/>
<path id="Vector_65" d="M63.9826 20.831C63.9826 20.831 61.4001 17.3514 59.9593 18.7304C58.5185 20.1094 59.1663 20.2496 59.1663 20.2496L63.9826 20.831Z" fill="#530F2D"/>
<path id="Vector_66" d="M43.5352 21.3657C43.5352 21.3657 48.3021 15.8409 50.2542 17.8042C51.3958 18.9495 50.6028 19.7266 50.6028 19.7266L43.5352 21.3657Z" fill="#530F2D"/>
<path id="Vector_67" d="M61.2869 23.3757C61.13 23.7818 60.61 24.1032 60.2353 24.2873C60.0636 24.1062 59.8275 24.0011 59.5788 23.9951C58.8787 23.9951 58.3123 24.9125 58.3123 26.0402C58.3123 27.168 58.8933 28.0853 59.5788 28.0853C60.2644 28.0853 60.8482 27.168 60.8482 26.0402C60.8505 25.6457 60.7755 25.2545 60.6275 24.8891C61.0806 24.4012 61.2869 23.3757 61.2869 23.3757Z" fill="#171919"/>
<path id="Vector_68" d="M43.9535 25.8883L44.2643 25.7802C44.459 25.7159 44.7407 25.6312 45.0777 25.5523C45.8996 25.3699 46.7403 25.2875 47.5817 25.3069C48.4314 25.3169 49.2768 25.4287 50.1002 25.64C50.443 25.7305 50.7335 25.824 50.931 25.8971L51.2505 26.011C51.209 25.9231 51.1614 25.8381 51.1082 25.7568C50.9523 25.5171 50.7636 25.3007 50.5476 25.1141C49.6982 24.4141 48.6362 24.0275 47.5381 24.0185C46.4699 23.9766 45.4236 24.3312 44.5984 25.0147C44.3936 25.1922 44.2181 25.4013 44.0784 25.6341C44.0295 25.715 43.9877 25.8 43.9535 25.8883Z" fill="#171919"/>
<path id="Vector_69" d="M61.9347 25.041C61.6302 25.4412 61.2247 25.752 60.7603 25.9411C60.2959 26.1302 59.7896 26.1906 59.2941 26.1162C59.5986 25.716 60.0041 25.4052 60.4685 25.2161C60.9329 25.027 61.4392 24.9666 61.9347 25.041Z" fill="#FFF0E8"/>
<path id="Vector_70" d="M53.8504 31.7198C53.435 31.5679 53.0225 31.34 52.5839 31.3838C53.0308 32.3986 53.8543 33.1975 54.8787 33.6101C54.9553 33.6457 55.0384 33.6646 55.1227 33.6656C55.227 33.6563 55.327 33.6201 55.4132 33.5604C55.978 33.229 56.4717 32.7881 56.8657 32.2632C56.9509 32.1616 57.0143 32.0432 57.0516 31.9156C57.1532 31.489 56.8598 31.5825 56.6071 31.6818C56.3138 31.7972 56.0074 31.8757 55.695 31.9156C55.0734 32.0003 54.4407 31.9331 53.8504 31.7198Z" fill="#F69889"/>
<path id="Vector_71" d="M54.9688 33.3647C55.2273 33.1309 55.5178 32.9352 55.785 32.7073C56.1146 32.4289 56.4162 32.1187 56.6856 31.7812C55.3058 30.8229 55.3203 29.3738 55.3871 27.7289C55.4148 27.0623 55.5809 26.4089 55.8745 25.8107C56.1682 25.2125 56.583 24.6826 57.0922 24.2551C57.236 24.1392 57.398 24.0484 57.5715 23.9863C57.4844 24.0857 57.4263 24.1996 57.3508 24.2989C57.143 24.5521 56.9491 24.8164 56.7698 25.0907C56.2489 25.9487 55.954 26.926 55.9129 27.9305C55.8846 28.5869 55.9904 29.2421 56.2237 29.8558C56.492 30.5815 56.9745 31.2075 57.6064 31.6497C57.6064 31.6497 56.6623 32.757 56.5694 32.8475C56.329 33.0797 56.0663 33.2872 55.785 33.4669C55.5186 33.6805 55.195 33.8096 54.8555 33.838C54.7518 33.8381 54.6505 33.8065 54.565 33.7474C54.6227 33.7093 54.6763 33.6653 54.7248 33.6159L54.7887 33.5516C54.8381 33.4845 54.902 33.426 54.9688 33.3647Z" fill="#F47C6F"/>
<path id="Vector_72" d="M48.9818 38.869C49.5546 39.299 50.2128 39.5999 50.9115 39.7511C51.6103 39.9024 52.3333 39.9004 53.0312 39.7455C52.7801 40.026 52.46 40.2352 52.1031 40.3522C51.7462 40.4691 51.3651 40.4896 50.9978 40.4116C50.1588 40.1667 49.4403 39.6169 48.9818 38.869Z" fill="#F47C6F"/>
<path id="Vector_73" d="M56.7872 36C56.164 37.0417 55.2715 37.8939 54.2048 38.4658C53.2955 38.9439 52.2633 39.1334 51.2447 39.0092C50.2165 38.8925 49.26 38.4218 48.5374 37.677C47.6503 36.7134 47.0346 35.5295 46.7538 34.247C53.0661 34.1389 56.6303 35.9357 56.7814 36H56.7872Z" fill="#F15C69"/>
<path id="Vector_74" d="M56.7872 36C56.7872 36 56.5955 36.2921 55.6253 36.4966C54.655 36.7011 48.5984 35.5939 47.9361 35.2929C47.4634 35.0373 47.0558 34.6754 46.7451 34.2353C53.0574 34.1272 56.6216 35.924 56.7727 35.9883L56.7872 36Z" fill="#FFF0E8"/>
<path id="Vector_75" d="M54.2048 38.4658C53.2955 38.9439 52.2633 39.1334 51.2447 39.0092C50.2165 38.8925 49.26 38.4218 48.5374 37.6769C49.7865 37.2299 52.5693 36.5638 54.2048 38.4658Z" fill="#CE4B57"/>
<path id="Vector_76" d="M59.0501 32.2895C59.2738 32.8738 60.549 32.9527 61.9027 32.4444C63.2564 31.936 64.1743 31.0391 63.9535 30.446C63.7328 29.8529 62.4546 29.7828 61.1009 30.2912C59.7473 30.7995 58.8293 31.7052 59.0501 32.2895Z" fill="#F69889"/>
<path id="Vector_77" d="M42.0276 29.5257C41.7952 30.4226 43.2651 31.5708 45.3043 32.1142C47.3435 32.6576 49.1881 32.3509 49.4176 31.4539C49.647 30.557 48.183 29.4088 46.1409 28.8683C44.0987 28.3278 42.2571 28.6317 42.0276 29.5257Z" fill="#F69889"/>
<path id="Vector_78" d="M63.4568 21.2605C63.233 21.1092 62.9969 20.9772 62.7509 20.8661C62.5159 20.7558 62.272 20.6658 62.0218 20.5973C61.5651 20.4631 61.0916 20.3953 60.6158 20.3957C60.5471 20.3913 60.4783 20.3913 60.4096 20.3957C60.209 20.3994 60.009 20.418 59.8112 20.4512C58.7293 20.626 57.7308 21.1426 56.9605 21.9264C56.1901 22.7101 55.6879 23.7202 55.5265 24.8102C54.6318 24.41 53.6587 24.6349 53.0487 24.8687C52.8922 23.4868 52.2347 22.2115 51.202 21.2865C50.1693 20.3616 48.8338 19.852 47.451 19.8552C46.3129 19.8593 45.2025 20.2087 44.265 20.8577C43.3275 21.5066 42.6064 22.4249 42.1961 23.4926L37.0022 22.6482L36.2004 22.5168L34.78 22.283L34.7567 22.432L34.7102 22.7242L34.6434 23.1332V23.1537L34.7509 23.1712L35.5497 23.3027H35.6253L35.9739 23.3611L36.3341 23.4166L36.5403 23.4517L36.8163 23.4955L38.9513 23.8461L41.955 24.3369C41.7895 25.1035 41.7846 25.8964 41.9406 26.665C42.0967 27.4337 42.4102 28.1611 42.8613 28.8011C43.381 29.5426 44.0702 30.1475 44.871 30.565C45.6718 30.9824 46.5606 31.2001 47.4626 31.1998C48.1101 31.2017 48.753 31.0899 49.3624 30.8696C50.4105 30.4894 51.3234 29.8057 51.9861 28.9048C52.6487 28.0038 53.0316 26.9258 53.0864 25.8065C53.5396 25.5991 54.6696 25.1842 55.4858 25.8065C55.4977 26.0762 55.5287 26.3447 55.5788 26.6099C55.6556 26.9887 55.7755 27.3573 55.9361 27.7085C56.3121 28.5528 56.9062 29.2803 57.6568 29.8152C58.4073 30.3501 59.2867 30.6729 60.2033 30.7498C60.3428 30.7498 60.4938 30.7674 60.6275 30.7674H60.8569C61.0576 30.7617 61.2576 30.7412 61.4553 30.706L61.557 30.6885H61.6093C62.0182 30.6079 62.4161 30.4784 62.7945 30.3028C62.9659 30.221 63.1344 30.1305 63.297 30.034C63.4597 29.9376 63.5875 29.8529 63.7095 29.7419L63.7531 29.7068C63.9737 29.5387 64.1798 29.3521 64.3689 29.1488C64.8851 28.6002 65.2757 27.9446 65.5132 27.228C65.7506 26.5114 65.8292 25.7512 65.7433 25.0009C65.6575 24.2505 65.4094 23.5281 65.0164 22.8844C64.6234 22.2408 64.095 21.6915 63.4684 21.2751L63.4568 21.2605ZM48.764 30.1421C48.3349 30.2695 47.8897 30.3335 47.4423 30.3321C46.2313 30.3344 45.0645 29.8748 44.1772 29.0459C43.29 28.2171 42.7482 27.0807 42.6612 25.8659C42.5742 24.6511 42.9485 23.4483 43.7085 22.5001C44.4685 21.552 45.5577 20.9289 46.7565 20.7567C47.9553 20.5844 49.1744 20.8758 50.168 21.572C51.1616 22.2682 51.8558 23.3175 52.1104 24.5082C52.3651 25.6989 52.1614 26.9424 51.5403 27.988C50.9193 29.0336 49.9271 29.8034 48.764 30.1421ZM63.9041 28.3278C63.8264 28.4235 63.744 28.5151 63.6572 28.6025C63.5235 28.7425 63.3788 28.8715 63.2244 28.9881C63.006 29.1611 62.7704 29.3109 62.5214 29.4351C62.1937 29.6009 61.8461 29.7236 61.4873 29.8003L61.3914 29.8178H61.3479C61.1649 29.8533 60.9793 29.8739 60.793 29.8792C60.732 29.8792 60.671 29.8792 60.6071 29.8792C59.5315 29.8786 58.4954 29.4716 57.704 28.739C56.9126 28.0063 56.4236 27.0014 56.3341 25.9234C56.3341 25.8065 56.3166 25.6867 56.3166 25.5669C56.316 25.3802 56.3286 25.1938 56.3544 25.0089C56.4766 24.0811 56.895 23.2183 57.5467 22.5502C58.1983 21.8821 59.0481 21.4449 59.968 21.3043C60.1795 21.2713 60.3931 21.2547 60.6071 21.2546C61.3179 21.2566 62.0169 21.4374 62.6405 21.7805C62.9396 21.9399 63.2177 22.1362 63.4684 22.3648C64.2883 23.1087 64.7903 24.1426 64.8693 25.2503C64.9484 26.3579 64.5984 27.4534 63.8925 28.3074L63.9041 28.3278Z" fill="#171919"/>
<path id="Vector_79" d="M63.6979 15.2361C63.6778 16.5545 63.5808 17.8705 63.4074 19.1774C63.3667 19.4695 63.3406 19.6215 63.3406 19.6215C56.8308 15.017 56.8076 9.72309 56.9906 8.05485C55.2215 17.328 35.6776 22.6629 35.6776 22.6629L32.9354 23.8666C32.3128 23.1486 31.814 22.3309 31.4597 21.4475C30.3442 18.8648 29.4466 14.2077 32.305 7.42379C32.9648 5.81127 33.9869 4.37429 35.2912 3.22545L35.3145 3.21084C41.6093 -2.25547 52.5955 0.899854 52.5955 0.899854C62.4575 1.12457e-06 63.7937 9.42509 63.6979 15.2361Z" fill="#3C1028"/>
<path id="Vector_80" d="M40.8627 27.1709C40.7901 26.9518 40.6797 26.6362 40.5171 26.2535C40.3278 25.8005 40.1004 25.3645 39.8373 24.9505C39.5065 24.4274 39.0969 23.9592 38.6231 23.5627C38.1413 23.1693 37.596 22.862 37.0109 22.6541C36.5482 22.4879 36.0705 22.3676 35.5846 22.2947C35.4074 22.2684 35.2447 22.248 35.0995 22.2363C34.9049 22.0931 34.7887 22.0172 34.7887 22.0172L34.9078 22.2188L34.6173 22.2012C34.3849 22.2012 34.2571 22.2012 34.2571 22.2012L35.1547 22.6336L35.6834 23.5306C36.3793 24.6604 36.9409 25.8684 37.3566 27.13C37.7086 28.418 37.9458 29.735 38.0654 31.0654C38.1293 31.6 38.1845 32.0353 38.2222 32.3363C38.26 32.6372 38.2919 32.8066 38.2919 32.8066L38.4227 32.348C38.5011 32.0558 38.6115 31.6263 38.7132 31.0887C38.8362 30.4541 38.9042 29.8099 38.9165 29.1634C38.9389 28.3431 38.8311 27.5245 38.597 26.7385C38.3541 25.953 37.9798 25.2149 37.4902 24.556C37.1233 24.0597 36.7109 23.599 36.2585 23.18C36.8756 23.5041 37.4595 23.8887 38.0015 24.3282C38.7651 24.991 39.4671 25.7225 40.0988 26.5135L40.7291 27.2498L40.9702 27.5156L40.8627 27.1709Z" fill="#3C1028"/>
<path id="Vector_81" d="M63.6979 15.2361C63.5574 15.1885 63.4197 15.1329 63.2854 15.0696C60.1946 13.6556 58.1903 9.54195 57.162 6.81317C56.6071 5.32024 56.3166 4.24217 56.3166 4.24217C56.236 4.88388 56.0061 5.49744 55.6456 6.0331C53.6413 9.40755 47.8025 14.1727 47.8025 14.1727L48.6739 11.4877C48.6739 11.4877 47.0821 14.0967 41.0574 17.9153C38.6057 19.4695 34.931 20.6236 31.4336 21.4445C28.9528 22.0289 26.565 22.4467 24.7669 22.7184C25.1051 20.47 25.6586 18.2597 26.4198 16.1185C29.4757 7.57571 34.8061 3.55559 35.2651 3.22837L35.2883 3.21376C41.5832 -2.25255 52.5694 0.902776 52.5694 0.902776C53.2251 0.8427 53.8843 0.830008 54.5418 0.864796C62.6376 1.32057 63.788 9.83411 63.6979 15.2361Z" fill="#530F2D"/>
<path id="Vector_82" d="M54.5737 0.86771C53.4321 3.20499 51.1867 4.95795 49.0051 6.47134C49.3921 5.75709 49.5637 4.94487 49.4989 4.13406C46.6463 8.2911 42.6825 11.5516 38.0654 13.5387C38.613 12.4449 38.8683 11.2266 38.8061 10.0036C35.9559 12.5999 32.5359 14.4819 28.825 15.4962C28.0451 15.7464 27.253 15.956 26.4517 16.1243C29.5076 7.58155 34.8381 3.56143 35.297 3.23421L35.3203 3.2196C41.6151 -2.24671 52.6013 0.908612 52.6013 0.908612C53.257 0.847563 53.9161 0.833894 54.5737 0.86771Z" fill="#700E33"/>
</g>
<defs>
<clipPath id="clip0_6_438">
<rect width="124" height="266" fill="white"/>
</clipPath>
</defs>
</svg>
